G04 ================== begin FILE IDENTIFICATION RECORD ==================*
G04 Layout Name:  C:/Users/anama/Documents/allegro/PROIECTPART2.brd*
G04 Film Name:    BOTTOM*
G04 File Format:  Gerber RS274X*
G04 File Origin:  Cadence Allegro 17.2-S025*
G04 Origin Date:  Sun Dec 14 19:09:46 2025*
G04 *
G04 Layer:  ETCH/BOTTOM*
G04 Layer:  PIN/BOTTOM*
G04 Layer:  VIA CLASS/BOTTOM*
G04 *
G04 Offset:    (0.0000 0.0000)*
G04 Mirror:    No*
G04 Mode:      Positive*
G04 Rotation:  0*
G04 FullContactRelief:  No*
G04 UndefLineWidth:     0.1000*
G04 ================== end FILE IDENTIFICATION RECORD ====================*
%FSLAX25Y25*MOMM*%
%IR0*IPPOS*OFA0.00000B0.00000*MIA0B0*SFA1.00000B1.00000*%
%ADD10C,.7*%
%ADD11C,.4*%
%ADD12C,.45*%
G75*
%LPD*%
G75*
G54D10*
X1141000Y1848000D03*
X1062000Y2079000D03*
X958640Y2691360D03*
X575000Y2253000D03*
X1466000Y838000D03*
X1420000Y1526000D03*
X1844000Y1935000D03*
X1846000Y3356000D03*
X2250000Y2101000D03*
X2330000Y1885000D03*
X2445000Y2391000D03*
X2081000Y2755000D03*
X2632000Y2287000D03*
X2912000Y1864000D03*
X2937000Y1718000D03*
G54D11*
G01X1420000Y1526000D02*
Y1728000D01*
X1300000Y1848000D01*
X1141000D01*
G01X1062000Y2079000D02*
X1808310D01*
X1808350Y2079040D01*
X1879650D01*
X1879690Y2079000D01*
X2228000D01*
X2250000Y2101000D01*
G01X958640Y2691360D02*
Y2293000D01*
X918640Y2253000D01*
X575000D01*
G01X1466000Y838000D02*
Y1480000D01*
X1420000Y1526000D01*
G01X1846000Y3356000D02*
X1675500Y3185500D01*
Y2795000D01*
X1715500Y2755000D01*
X2081000D01*
G01X2912000Y1864000D02*
X2956680Y1908680D01*
Y2458320D01*
X2863000Y2552000D01*
X2606000D01*
X2445000Y2391000D01*
G54D12*
G01X1844000Y1935000D02*
Y1690000D01*
X1951000Y1583000D01*
X2802000D01*
X2937000Y1718000D01*
G01X2330000Y1885000D02*
X2379640Y1934640D01*
X2398320D01*
X2632000Y2168320D01*
Y2287000D01*
M02*
