G04 ================== begin FILE IDENTIFICATION RECORD ==================*
G04 Layout Name:  C:/Users/anama/Documents/allegro/PROIECTPART2.brd*
G04 Film Name:    FAB*
G04 File Format:  Gerber RS274X*
G04 File Origin:  Cadence Allegro 17.2-S025*
G04 Origin Date:  Sun Dec 14 22:13:45 2025*
G04 *
G04 Layer:  BOARD GEOMETRY/DIMENSION*
G04 Layer:  MANUFACTURING/NCDRILL_LEGEND*
G04 Layer:  MANUFACTURING/NCDRILL_FIGURE*
G04 Layer:  MANUFACTURING/XSECTION_CHART*
G04 Layer:  MANUFACTURING/NCLEGEND-1-2*
G04 Layer:  DRAWING FORMAT/OUTLINE*
G04 *
G04 Offset:    (0.0000 0.0000)*
G04 Mirror:    No*
G04 Mode:      Positive*
G04 Rotation:  0*
G04 FullContactRelief:  No*
G04 UndefLineWidth:     0.1000*
G04 ================== end FILE IDENTIFICATION RECORD ====================*
%FSLAX25Y25*MOMM*%
%IR0*IPPOS*OFA0.00000B0.00000*MIA0B0*SFA1.00000B1.00000*%
%AMMACRO10*
1,1,.1,.635,0.0*
20,1,.1,.635,0.0,.625353,-.110267,0.0*
1,1,.1,.625353,-.110267*
20,1,.1,.625353,-.110267,.596705,-.217183,0.0*
1,1,.1,.596705,-.217183*
20,1,.1,.596705,-.217183,.549926,-.3175,0.0*
1,1,.1,.549926,-.3175*
20,1,.1,.549926,-.3175,.486438,-.40817,0.0*
1,1,.1,.486438,-.40817*
20,1,.1,.486438,-.40817,.40817,-.486438,0.0*
1,1,.1,.40817,-.486438*
20,1,.1,.40817,-.486438,.3175,-.549926,0.0*
1,1,.1,.3175,-.549926*
20,1,.1,.3175,-.549926,.217183,-.596705,0.0*
1,1,.1,.217183,-.596705*
20,1,.1,.217183,-.596705,.110267,-.625353,0.0*
1,1,.1,.110267,-.625353*
20,1,.1,.110267,-.625353,0.0,-.635,0.0*
1,1,.1,0.0,-.635*
20,1,.1,0.0,-.635,-.110267,-.625353,0.0*
1,1,.1,-.110267,-.625353*
20,1,.1,-.110267,-.625353,-.217183,-.596705,0.0*
1,1,.1,-.217183,-.596705*
20,1,.1,-.217183,-.596705,-.3175,-.549926,0.0*
1,1,.1,-.3175,-.549926*
20,1,.1,-.3175,-.549926,-.40817,-.486438,0.0*
1,1,.1,-.40817,-.486438*
20,1,.1,-.40817,-.486438,-.486438,-.40817,0.0*
1,1,.1,-.486438,-.40817*
20,1,.1,-.486438,-.40817,-.549926,-.3175,0.0*
1,1,.1,-.549926,-.3175*
20,1,.1,-.549926,-.3175,-.596705,-.217183,0.0*
1,1,.1,-.596705,-.217183*
20,1,.1,-.596705,-.217183,-.625353,-.110267,0.0*
1,1,.1,-.625353,-.110267*
20,1,.1,-.625353,-.110267,-.635,0.0,0.0*
1,1,.1,-.635,0.0*
20,1,.1,-.635,0.0,-.625353,.110267,0.0*
1,1,.1,-.625353,.110267*
20,1,.1,-.625353,.110267,-.596705,.217183,0.0*
1,1,.1,-.596705,.217183*
20,1,.1,-.596705,.217183,-.549926,.3175,0.0*
1,1,.1,-.549926,.3175*
20,1,.1,-.549926,.3175,-.486438,.40817,0.0*
1,1,.1,-.486438,.40817*
20,1,.1,-.486438,.40817,-.40817,.486438,0.0*
1,1,.1,-.40817,.486438*
20,1,.1,-.40817,.486438,-.3175,.549926,0.0*
1,1,.1,-.3175,.549926*
20,1,.1,-.3175,.549926,-.217183,.596705,0.0*
1,1,.1,-.217183,.596705*
20,1,.1,-.217183,.596705,-.110267,.625353,0.0*
1,1,.1,-.110267,.625353*
20,1,.1,-.110267,.625353,0.0,.635,0.0*
1,1,.1,0.0,.635*
20,1,.1,0.0,.635,.110267,.625353,0.0*
1,1,.1,.110267,.625353*
20,1,.1,.110267,.625353,.217183,.596705,0.0*
1,1,.1,.217183,.596705*
20,1,.1,.217183,.596705,.3175,.549926,0.0*
1,1,.1,.3175,.549926*
20,1,.1,.3175,.549926,.40817,.486438,0.0*
1,1,.1,.40817,.486438*
20,1,.1,.40817,.486438,.486438,.40817,0.0*
1,1,.1,.486438,.40817*
20,1,.1,.486438,.40817,.549926,.3175,0.0*
1,1,.1,.549926,.3175*
20,1,.1,.549926,.3175,.596705,.217183,0.0*
1,1,.1,.596705,.217183*
20,1,.1,.596705,.217183,.625353,.110267,0.0*
1,1,.1,.625353,.110267*
20,1,.1,.625353,.110267,.635,0.0,0.0*
1,1,.1,.635,0.0*
1,1,.1,.3175,0.0*
20,1,.1,.3175,0.0,-.3175,0.0,0.0*
1,1,.1,-.3175,0.0*
1,1,.1,0.0,.3175*
20,1,.1,0.0,.3175,0.0,-.3175,0.0*
1,1,.1,0.0,-.3175*
%
%ADD10MACRO10*%
%ADD11C,.1778*%
%ADD12C,.1*%
G75*
%LPD*%
G75*
G36*
G01X-4171000Y3101270D02*
Y2516060D01*
X-4107500D01*
Y-1385380D01*
X-4171000D01*
Y-1970590D01*
X-3790000D01*
Y-1385380D01*
X-3853500D01*
Y2516060D01*
X-3790000D01*
Y3101270D01*
X-4171000D01*
G37*
G36*
G01X-4679000Y-1970590D02*
Y-1385380D01*
X-3155000D01*
Y-1970590D01*
X-4679000D01*
G37*
G36*
G01Y2516060D02*
Y3101270D01*
X-3155000D01*
Y2516060D01*
X-4679000D01*
G37*
G54D10*
X1141000Y1848000D03*
X1062000Y2079000D03*
X958640Y2691360D03*
X575000Y2253000D03*
X1601730Y-4033500D03*
X1466000Y838000D03*
X1420000Y1526000D03*
X1844000Y1935000D03*
X1846000Y3356000D03*
X2250000Y2101000D03*
X2330000Y1885000D03*
X2445000Y2391000D03*
X2081000Y2755000D03*
X2632000Y2287000D03*
X2912000Y1864000D03*
X2937000Y1718000D03*
G54D11*
G01X-4630400Y-2165740D02*
Y-2114940D01*
X-4616850D01*
X-4611440Y-2117480D01*
X-4607370Y-2120870D01*
X-4603980Y-2125950D01*
X-4601280Y-2131870D01*
X-4600600Y-2140340D01*
X-4601280Y-2148810D01*
X-4603980Y-2154730D01*
X-4607370Y-2159810D01*
X-4611440Y-2163200D01*
X-4616850Y-2165740D01*
X-4630400D01*
G01X-4546070D02*
X-4573170D01*
Y-2114940D01*
X-4546070D01*
G01X-4556910Y-2139490D02*
X-4573170D01*
G01X-4517960Y-2158970D02*
X-4512550Y-2163200D01*
X-4506450Y-2165740D01*
X-4501030D01*
X-4495610Y-2163200D01*
X-4491550Y-2158970D01*
X-4489520Y-2153040D01*
X-4490870Y-2147110D01*
X-4494260Y-2142030D01*
X-4500350Y-2138650D01*
X-4508480Y-2136950D01*
X-4513220Y-2133570D01*
X-4515260Y-2127640D01*
X-4513900Y-2121710D01*
X-4510510Y-2117480D01*
X-4505770Y-2114940D01*
X-4501030D01*
X-4496290Y-2116630D01*
X-4492220Y-2120870D01*
G01X-4455990Y-2114940D02*
X-4439730D01*
G01X-4447860D02*
Y-2165740D01*
G01X-4455990D02*
X-4439730D01*
G01X-4387920Y-2140340D02*
X-4374370D01*
Y-2155580D01*
X-4378430Y-2160660D01*
X-4383170Y-2164050D01*
X-4389950Y-2165740D01*
X-4396720Y-2164050D01*
X-4401460Y-2160660D01*
X-4405530Y-2155580D01*
X-4408240Y-2149650D01*
X-4409590Y-2142880D01*
Y-2136950D01*
X-4408240Y-2131870D01*
X-4405530Y-2125950D01*
X-4401460Y-2120870D01*
X-4397400Y-2117480D01*
X-4391980Y-2114940D01*
X-4387240D01*
X-4381820Y-2116630D01*
X-4377760Y-2120020D01*
G01X-4351680Y-2165740D02*
Y-2114940D01*
X-4320520Y-2165740D01*
Y-2114940D01*
G01X-4209440Y-2119170D02*
X-4213500Y-2116630D01*
X-4218240Y-2114940D01*
X-4223660D01*
X-4229760Y-2117480D01*
X-4234500Y-2121710D01*
X-4237890Y-2126790D01*
X-4240600Y-2135260D01*
X-4241270Y-2142880D01*
X-4239920Y-2150500D01*
X-4237890Y-2155580D01*
X-4233820Y-2160660D01*
X-4229080Y-2164050D01*
X-4224340Y-2165740D01*
X-4219600D01*
X-4214860Y-2164050D01*
X-4210790Y-2161510D01*
X-4207410Y-2158120D01*
G01X-4182010Y-2165740D02*
Y-2114940D01*
X-4165070D01*
X-4159650Y-2117480D01*
X-4156270Y-2120870D01*
X-4154910Y-2127640D01*
X-4156270Y-2134410D01*
X-4160330Y-2138650D01*
X-4165070Y-2141190D01*
X-4182010D01*
G01X-4165070D02*
X-4154910Y-2165740D01*
G01X-4112580D02*
X-4118000Y-2164890D01*
X-4122740Y-2161510D01*
X-4126800Y-2156430D01*
X-4129510Y-2150500D01*
X-4130870Y-2143730D01*
Y-2136950D01*
X-4129510Y-2130180D01*
X-4126800Y-2124250D01*
X-4122740Y-2119170D01*
X-4118000Y-2115790D01*
X-4112580Y-2114940D01*
X-4107160Y-2115790D01*
X-4102420Y-2119170D01*
X-4098360Y-2124250D01*
X-4095650Y-2130180D01*
X-4094290Y-2136950D01*
Y-2143730D01*
X-4095650Y-2150500D01*
X-4098360Y-2156430D01*
X-4102420Y-2161510D01*
X-4107160Y-2164890D01*
X-4112580Y-2165740D01*
G01X-4070920Y-2158970D02*
X-4065510Y-2163200D01*
X-4059410Y-2165740D01*
X-4053990D01*
X-4048570Y-2163200D01*
X-4044510Y-2158970D01*
X-4042480Y-2153040D01*
X-4043830Y-2147110D01*
X-4047220Y-2142030D01*
X-4053310Y-2138650D01*
X-4061440Y-2136950D01*
X-4066180Y-2133570D01*
X-4068220Y-2127640D01*
X-4066860Y-2121710D01*
X-4063470Y-2117480D01*
X-4058730Y-2114940D01*
X-4053990D01*
X-4049250Y-2116630D01*
X-4045180Y-2120870D01*
G01X-4015040Y-2158970D02*
X-4009630Y-2163200D01*
X-4003530Y-2165740D01*
X-3998110D01*
X-3992690Y-2163200D01*
X-3988630Y-2158970D01*
X-3986600Y-2153040D01*
X-3987950Y-2147110D01*
X-3991340Y-2142030D01*
X-3997430Y-2138650D01*
X-4005560Y-2136950D01*
X-4010300Y-2133570D01*
X-4012340Y-2127640D01*
X-4010980Y-2121710D01*
X-4007590Y-2117480D01*
X-4002850Y-2114940D01*
X-3998110D01*
X-3993370Y-2116630D01*
X-3989300Y-2120870D01*
G01X-3903280Y-2158970D02*
X-3897870Y-2163200D01*
X-3891770Y-2165740D01*
X-3886350D01*
X-3880930Y-2163200D01*
X-3876870Y-2158970D01*
X-3874840Y-2153040D01*
X-3876190Y-2147110D01*
X-3879580Y-2142030D01*
X-3885670Y-2138650D01*
X-3893800Y-2136950D01*
X-3898540Y-2133570D01*
X-3900580Y-2127640D01*
X-3899220Y-2121710D01*
X-3895830Y-2117480D01*
X-3891090Y-2114940D01*
X-3886350D01*
X-3881610Y-2116630D01*
X-3877540Y-2120870D01*
G01X-3819630Y-2165740D02*
X-3846730D01*
Y-2114940D01*
X-3819630D01*
G01X-3830470Y-2139490D02*
X-3846730D01*
G01X-3762400Y-2119170D02*
X-3766460Y-2116630D01*
X-3771200Y-2114940D01*
X-3776620D01*
X-3782720Y-2117480D01*
X-3787460Y-2121710D01*
X-3790850Y-2126790D01*
X-3793560Y-2135260D01*
X-3794230Y-2142880D01*
X-3792880Y-2150500D01*
X-3790850Y-2155580D01*
X-3786780Y-2160660D01*
X-3782040Y-2164050D01*
X-3777300Y-2165740D01*
X-3772560D01*
X-3767820Y-2164050D01*
X-3763750Y-2161510D01*
X-3760370Y-2158120D01*
G01X-3721420Y-2114940D02*
Y-2165740D01*
G01X-3737000Y-2114940D02*
X-3705840D01*
G01X-3673670D02*
X-3657410D01*
G01X-3665540D02*
Y-2165740D01*
G01X-3673670D02*
X-3657410D01*
G01X-3609660D02*
X-3615080Y-2164890D01*
X-3619820Y-2161510D01*
X-3623880Y-2156430D01*
X-3626590Y-2150500D01*
X-3627950Y-2143730D01*
Y-2136950D01*
X-3626590Y-2130180D01*
X-3623880Y-2124250D01*
X-3619820Y-2119170D01*
X-3615080Y-2115790D01*
X-3609660Y-2114940D01*
X-3604240Y-2115790D01*
X-3599500Y-2119170D01*
X-3595440Y-2124250D01*
X-3592730Y-2130180D01*
X-3591370Y-2136950D01*
Y-2143730D01*
X-3592730Y-2150500D01*
X-3595440Y-2156430D01*
X-3599500Y-2161510D01*
X-3604240Y-2164890D01*
X-3609660Y-2165740D01*
G01X-3569360D02*
Y-2114940D01*
X-3538200Y-2165740D01*
Y-2114940D01*
G01X-3427120Y-2119170D02*
X-3431180Y-2116630D01*
X-3435920Y-2114940D01*
X-3441340D01*
X-3447440Y-2117480D01*
X-3452180Y-2121710D01*
X-3455570Y-2126790D01*
X-3458280Y-2135260D01*
X-3458950Y-2142880D01*
X-3457600Y-2150500D01*
X-3455570Y-2155580D01*
X-3451500Y-2160660D01*
X-3446760Y-2164050D01*
X-3442020Y-2165740D01*
X-3437280D01*
X-3432540Y-2164050D01*
X-3428470Y-2161510D01*
X-3425090Y-2158120D01*
G01X-3400360Y-2165740D02*
Y-2114940D01*
G01X-3371920D02*
Y-2165740D01*
G01Y-2140340D02*
X-3400360D01*
G01X-3347190Y-2165740D02*
X-3330260Y-2114940D01*
X-3313330Y-2165740D01*
G01X-3319420Y-2147960D02*
X-3341100D01*
G01X-3287930Y-2165740D02*
Y-2114940D01*
X-3270990D01*
X-3265570Y-2117480D01*
X-3262190Y-2120870D01*
X-3260830Y-2127640D01*
X-3262190Y-2134410D01*
X-3266250Y-2138650D01*
X-3270990Y-2141190D01*
X-3287930D01*
G01X-3270990D02*
X-3260830Y-2165740D01*
G01X-3218500Y-2114940D02*
Y-2165740D01*
G01X-3234080Y-2114940D02*
X-3202920D01*
G01X-4663760Y-2182670D02*
X-4623120D01*
G01X-4607880D02*
X-4567240D01*
G01X-4552000D02*
X-4511360D01*
G01X-4496120D02*
X-4455480D01*
G01X-4440240D02*
X-4399600D01*
G01X-4384360D02*
X-4343720D01*
G01X-4328480D02*
X-4287840D01*
G01X-4272600D02*
X-4231960D01*
G01X-4216720D02*
X-4176080D01*
G01X-4160840D02*
X-4120200D01*
G01X-4104960D02*
X-4064320D01*
G01X-4049080D02*
X-4008440D01*
G01X-3993200D02*
X-3952560D01*
G01X-3937320D02*
X-3896680D01*
G01X-3881440D02*
X-3840800D01*
G01X-3825560D02*
X-3784920D01*
G01X-3769680D02*
X-3729040D01*
G01X-3713800D02*
X-3673160D01*
G01X-3657920D02*
X-3617280D01*
G01X-3602040D02*
X-3561400D01*
G01X-3546160D02*
X-3505520D01*
G01X-3490280D02*
X-3449640D01*
G01X-3434400D02*
X-3393760D01*
G01X-3378520D02*
X-3337880D01*
G01X-3322640D02*
X-3282000D01*
G01X-3266760D02*
X-3226120D01*
G01X-3210880D02*
X-3170240D01*
G01X-4559620Y-2206380D02*
Y-2257180D01*
G01X-4575200Y-2206380D02*
X-4544040D01*
G01X-4503740Y-2257180D02*
X-4509160Y-2256330D01*
X-4513900Y-2252950D01*
X-4517960Y-2247870D01*
X-4520670Y-2241940D01*
X-4522030Y-2235170D01*
Y-2228390D01*
X-4520670Y-2221620D01*
X-4517960Y-2215690D01*
X-4513900Y-2210610D01*
X-4509160Y-2207230D01*
X-4503740Y-2206380D01*
X-4498320Y-2207230D01*
X-4493580Y-2210610D01*
X-4489520Y-2215690D01*
X-4486810Y-2221620D01*
X-4485450Y-2228390D01*
Y-2235170D01*
X-4486810Y-2241940D01*
X-4489520Y-2247870D01*
X-4493580Y-2252950D01*
X-4498320Y-2256330D01*
X-4503740Y-2257180D01*
G01X-4447860Y-2206380D02*
Y-2257180D01*
G01X-4463440Y-2206380D02*
X-4432280D01*
G01X-4408910Y-2257180D02*
X-4391980Y-2206380D01*
X-4375050Y-2257180D01*
G01X-4381140Y-2239400D02*
X-4402820D01*
G01X-4349650Y-2206380D02*
Y-2257180D01*
X-4322550D01*
G01X-4224340Y-2206380D02*
Y-2257180D01*
G01X-4239920Y-2206380D02*
X-4208760D01*
G01X-4182680Y-2257180D02*
Y-2206380D01*
G01X-4154240D02*
Y-2257180D01*
G01Y-2231780D02*
X-4182680D01*
G01X-4120710Y-2206380D02*
X-4104450D01*
G01X-4112580D02*
Y-2257180D01*
G01X-4120710D02*
X-4104450D01*
G01X-4041800Y-2210610D02*
X-4045860Y-2208070D01*
X-4050600Y-2206380D01*
X-4056020D01*
X-4062120Y-2208920D01*
X-4066860Y-2213150D01*
X-4070250Y-2218230D01*
X-4072960Y-2226700D01*
X-4073630Y-2234320D01*
X-4072280Y-2241940D01*
X-4070250Y-2247020D01*
X-4066180Y-2252100D01*
X-4061440Y-2255490D01*
X-4056700Y-2257180D01*
X-4051960D01*
X-4047220Y-2255490D01*
X-4043150Y-2252950D01*
X-4039770Y-2249560D01*
G01X-4015720Y-2257180D02*
Y-2206380D01*
G01X-3989980D02*
X-4015720Y-2237710D01*
G01X-3985920Y-2257180D02*
X-4004210Y-2223310D01*
G01X-3960520Y-2257180D02*
Y-2206380D01*
X-3929360Y-2257180D01*
Y-2206380D01*
G01X-3875510Y-2257180D02*
X-3902610D01*
Y-2206380D01*
X-3875510D01*
G01X-3886350Y-2230930D02*
X-3902610D01*
G01X-3847400Y-2250410D02*
X-3841990Y-2254640D01*
X-3835890Y-2257180D01*
X-3830470D01*
X-3825050Y-2254640D01*
X-3820990Y-2250410D01*
X-3818960Y-2244480D01*
X-3820310Y-2238550D01*
X-3823700Y-2233470D01*
X-3829790Y-2230090D01*
X-3837920Y-2228390D01*
X-3842660Y-2225010D01*
X-3844700Y-2219080D01*
X-3843340Y-2213150D01*
X-3839950Y-2208920D01*
X-3835210Y-2206380D01*
X-3830470D01*
X-3825730Y-2208070D01*
X-3821660Y-2212310D01*
G01X-3791520Y-2250410D02*
X-3786110Y-2254640D01*
X-3780010Y-2257180D01*
X-3774590D01*
X-3769170Y-2254640D01*
X-3765110Y-2250410D01*
X-3763080Y-2244480D01*
X-3764430Y-2238550D01*
X-3767820Y-2233470D01*
X-3773910Y-2230090D01*
X-3782040Y-2228390D01*
X-3786780Y-2225010D01*
X-3788820Y-2219080D01*
X-3787460Y-2213150D01*
X-3784070Y-2208920D01*
X-3779330Y-2206380D01*
X-3774590D01*
X-3769850Y-2208070D01*
X-3765780Y-2212310D01*
G01X-3665540Y-2257180D02*
Y-2206380D01*
X-3673670Y-2216540D01*
G01Y-2257180D02*
X-3657410D01*
G01X-3609660Y-2206380D02*
X-3615080Y-2208070D01*
X-3619140Y-2212310D01*
X-3621850Y-2217390D01*
X-3623880Y-2224160D01*
X-3624560Y-2231780D01*
X-3623880Y-2239400D01*
X-3621850Y-2246170D01*
X-3619140Y-2251250D01*
X-3615080Y-2255490D01*
X-3609660Y-2257180D01*
X-3604240Y-2255490D01*
X-3600180Y-2251250D01*
X-3597470Y-2246170D01*
X-3595440Y-2239400D01*
X-3594760Y-2231780D01*
X-3595440Y-2224160D01*
X-3597470Y-2217390D01*
X-3600180Y-2212310D01*
X-3604240Y-2208070D01*
X-3609660Y-2206380D01*
G01X-3553780Y-2258870D02*
X-3555130Y-2258030D01*
Y-2256330D01*
X-3553780Y-2255490D01*
X-3552430Y-2256330D01*
Y-2258030D01*
X-3553780Y-2258870D01*
G01X-3489770Y-2257180D02*
Y-2206380D01*
X-3514830Y-2242790D01*
X-3480970D01*
G01X-3403750Y-2257180D02*
Y-2206380D01*
X-3386140Y-2248710D01*
X-3368530Y-2206380D01*
Y-2257180D01*
G01X-3338390Y-2206380D02*
X-3322130D01*
G01X-3330260D02*
Y-2257180D01*
G01X-3338390D02*
X-3322130D01*
G01X-3287930Y-2206380D02*
Y-2257180D01*
X-3260830D01*
G01X-3980500Y3172390D02*
X-4031300D01*
X-4021140Y3164260D01*
G01X-3980500D02*
Y3180520D01*
G01X-3997430Y3219460D02*
Y3237080D01*
G01X-4022830Y3271280D02*
X-4027910Y3275340D01*
X-4030450Y3280090D01*
X-4031300Y3285500D01*
X-4029610Y3292280D01*
X-4025370Y3297020D01*
X-4020290Y3298370D01*
X-4015210Y3297700D01*
X-4010980Y3294990D01*
X-4002510Y3281440D01*
X-3996590Y3275340D01*
X-3988120Y3271280D01*
X-3980500Y3269930D01*
Y3298370D01*
G01X-3092350Y-1627180D02*
Y-1677980D01*
X-3065250D01*
G01X-3035790Y-1635650D02*
X-3031730Y-1630570D01*
X-3026980Y-1628030D01*
X-3021570Y-1627180D01*
X-3014790Y-1628870D01*
X-3010050Y-1633110D01*
X-3008700Y-1638190D01*
X-3009370Y-1643270D01*
X-3012080Y-1647500D01*
X-3025630Y-1655970D01*
X-3031730Y-1661890D01*
X-3035790Y-1670360D01*
X-3037140Y-1677980D01*
X-3008700D01*
G01X-2905740Y-1650890D02*
X-2903030Y-1648350D01*
X-2901000Y-1644110D01*
X-2899640Y-1638190D01*
X-2901000Y-1633110D01*
X-2903710Y-1629720D01*
X-2908450Y-1627180D01*
X-2926740D01*
Y-1677980D01*
X-2904390D01*
X-2899640Y-1674590D01*
X-2896940Y-1669510D01*
X-2895580Y-1663590D01*
X-2896940Y-1657660D01*
X-2901000Y-1652580D01*
X-2905740Y-1650890D01*
X-2926740D01*
G01X-2855280Y-1677980D02*
X-2860700Y-1677130D01*
X-2865440Y-1673750D01*
X-2869500Y-1668670D01*
X-2872210Y-1662740D01*
X-2873570Y-1655970D01*
Y-1649190D01*
X-2872210Y-1642420D01*
X-2869500Y-1636490D01*
X-2865440Y-1631410D01*
X-2860700Y-1628030D01*
X-2855280Y-1627180D01*
X-2849860Y-1628030D01*
X-2845120Y-1631410D01*
X-2841060Y-1636490D01*
X-2838350Y-1642420D01*
X-2836990Y-1649190D01*
Y-1655970D01*
X-2838350Y-1662740D01*
X-2841060Y-1668670D01*
X-2845120Y-1673750D01*
X-2849860Y-1677130D01*
X-2855280Y-1677980D01*
G01X-2799400Y-1627180D02*
Y-1677980D01*
G01X-2814980Y-1627180D02*
X-2783820D01*
G01X-2743520D02*
Y-1677980D01*
G01X-2759100Y-1627180D02*
X-2727940D01*
G01X-2687640Y-1677980D02*
X-2693060Y-1677130D01*
X-2697800Y-1673750D01*
X-2701860Y-1668670D01*
X-2704570Y-1662740D01*
X-2705930Y-1655970D01*
Y-1649190D01*
X-2704570Y-1642420D01*
X-2701860Y-1636490D01*
X-2697800Y-1631410D01*
X-2693060Y-1628030D01*
X-2687640Y-1627180D01*
X-2682220Y-1628030D01*
X-2677480Y-1631410D01*
X-2673420Y-1636490D01*
X-2670710Y-1642420D01*
X-2669350Y-1649190D01*
Y-1655970D01*
X-2670710Y-1662740D01*
X-2673420Y-1668670D01*
X-2677480Y-1673750D01*
X-2682220Y-1677130D01*
X-2687640Y-1677980D01*
G01X-2649370D02*
Y-1627180D01*
X-2631760Y-1669510D01*
X-2614150Y-1627180D01*
Y-1677980D01*
G01X-2505100Y-1631410D02*
X-2509160Y-1628870D01*
X-2513900Y-1627180D01*
X-2519320D01*
X-2525420Y-1629720D01*
X-2530160Y-1633950D01*
X-2533550Y-1639030D01*
X-2536260Y-1647500D01*
X-2536930Y-1655120D01*
X-2535580Y-1662740D01*
X-2533550Y-1667820D01*
X-2529480Y-1672900D01*
X-2524740Y-1676290D01*
X-2520000Y-1677980D01*
X-2515260D01*
X-2510520Y-1676290D01*
X-2506450Y-1673750D01*
X-2503070Y-1670360D01*
G01X-2464120Y-1677980D02*
X-2469540Y-1677130D01*
X-2474280Y-1673750D01*
X-2478340Y-1668670D01*
X-2481050Y-1662740D01*
X-2482410Y-1655970D01*
Y-1649190D01*
X-2481050Y-1642420D01*
X-2478340Y-1636490D01*
X-2474280Y-1631410D01*
X-2469540Y-1628030D01*
X-2464120Y-1627180D01*
X-2458700Y-1628030D01*
X-2453960Y-1631410D01*
X-2449900Y-1636490D01*
X-2447190Y-1642420D01*
X-2445830Y-1649190D01*
Y-1655970D01*
X-2447190Y-1662740D01*
X-2449900Y-1668670D01*
X-2453960Y-1673750D01*
X-2458700Y-1677130D01*
X-2464120Y-1677980D01*
G01X-2423820D02*
Y-1627180D01*
X-2392660Y-1677980D01*
Y-1627180D01*
G01X-2367260Y-1677980D02*
Y-1627180D01*
X-2353710D01*
X-2348300Y-1629720D01*
X-2344230Y-1633110D01*
X-2340840Y-1638190D01*
X-2338140Y-1644110D01*
X-2337460Y-1652580D01*
X-2338140Y-1661050D01*
X-2340840Y-1666970D01*
X-2344230Y-1672050D01*
X-2348300Y-1675440D01*
X-2353710Y-1677980D01*
X-2367260D01*
G01X-2311380Y-1627180D02*
Y-1663590D01*
X-2308670Y-1671210D01*
X-2303250Y-1676290D01*
X-2296480Y-1677980D01*
X-2289710Y-1676290D01*
X-2284290Y-1671210D01*
X-2281580Y-1663590D01*
Y-1627180D01*
G01X-2225700Y-1631410D02*
X-2229760Y-1628870D01*
X-2234500Y-1627180D01*
X-2239920D01*
X-2246020Y-1629720D01*
X-2250760Y-1633950D01*
X-2254150Y-1639030D01*
X-2256860Y-1647500D01*
X-2257530Y-1655120D01*
X-2256180Y-1662740D01*
X-2254150Y-1667820D01*
X-2250080Y-1672900D01*
X-2245340Y-1676290D01*
X-2240600Y-1677980D01*
X-2235860D01*
X-2231120Y-1676290D01*
X-2227050Y-1673750D01*
X-2223670Y-1670360D01*
G01X-2184720Y-1627180D02*
Y-1677980D01*
G01X-2200300Y-1627180D02*
X-2169140D01*
G01X-2128840Y-1677980D02*
X-2134260Y-1677130D01*
X-2139000Y-1673750D01*
X-2143060Y-1668670D01*
X-2145770Y-1662740D01*
X-2147130Y-1655970D01*
Y-1649190D01*
X-2145770Y-1642420D01*
X-2143060Y-1636490D01*
X-2139000Y-1631410D01*
X-2134260Y-1628030D01*
X-2128840Y-1627180D01*
X-2123420Y-1628030D01*
X-2118680Y-1631410D01*
X-2114620Y-1636490D01*
X-2111910Y-1642420D01*
X-2110550Y-1649190D01*
Y-1655970D01*
X-2111910Y-1662740D01*
X-2114620Y-1668670D01*
X-2118680Y-1673750D01*
X-2123420Y-1677130D01*
X-2128840Y-1677980D01*
G01X-2086510D02*
Y-1627180D01*
X-2069570D01*
X-2064150Y-1629720D01*
X-2060770Y-1633110D01*
X-2059410Y-1639880D01*
X-2060770Y-1646650D01*
X-2064830Y-1650890D01*
X-2069570Y-1653430D01*
X-2086510D01*
G01X-2069570D02*
X-2059410Y-1677980D01*
G01X-1970010Y-1661050D02*
X-1952390D01*
G01X-1834540Y-1631410D02*
X-1838600Y-1628870D01*
X-1843340Y-1627180D01*
X-1848760D01*
X-1854860Y-1629720D01*
X-1859600Y-1633950D01*
X-1862990Y-1639030D01*
X-1865700Y-1647500D01*
X-1866370Y-1655120D01*
X-1865020Y-1662740D01*
X-1862990Y-1667820D01*
X-1858920Y-1672900D01*
X-1854180Y-1676290D01*
X-1849440Y-1677980D01*
X-1844700D01*
X-1839960Y-1676290D01*
X-1835890Y-1673750D01*
X-1832510Y-1670360D01*
G01X-1793560Y-1677980D02*
X-1798980Y-1677130D01*
X-1803720Y-1673750D01*
X-1807780Y-1668670D01*
X-1810490Y-1662740D01*
X-1811850Y-1655970D01*
Y-1649190D01*
X-1810490Y-1642420D01*
X-1807780Y-1636490D01*
X-1803720Y-1631410D01*
X-1798980Y-1628030D01*
X-1793560Y-1627180D01*
X-1788140Y-1628030D01*
X-1783400Y-1631410D01*
X-1779340Y-1636490D01*
X-1776630Y-1642420D01*
X-1775270Y-1649190D01*
Y-1655970D01*
X-1776630Y-1662740D01*
X-1779340Y-1668670D01*
X-1783400Y-1673750D01*
X-1788140Y-1677130D01*
X-1793560Y-1677980D01*
G01X-1751230D02*
Y-1627180D01*
X-1734970D01*
X-1729550Y-1629720D01*
X-1725490Y-1635650D01*
X-1724130Y-1642420D01*
X-1725490Y-1649190D01*
X-1728870Y-1654270D01*
X-1734970Y-1656810D01*
X-1751230D01*
G01X-1695350Y-1677980D02*
Y-1627180D01*
X-1679090D01*
X-1673670Y-1629720D01*
X-1669610Y-1635650D01*
X-1668250Y-1642420D01*
X-1669610Y-1649190D01*
X-1672990Y-1654270D01*
X-1679090Y-1656810D01*
X-1695350D01*
G01X-1612370Y-1677980D02*
X-1639470D01*
Y-1627180D01*
X-1612370D01*
G01X-1623210Y-1651730D02*
X-1639470D01*
G01X-1583590Y-1677980D02*
Y-1627180D01*
X-1566650D01*
X-1561230Y-1629720D01*
X-1557850Y-1633110D01*
X-1556490Y-1639880D01*
X-1557850Y-1646650D01*
X-1561910Y-1650890D01*
X-1566650Y-1653430D01*
X-1583590D01*
G01X-1566650D02*
X-1556490Y-1677980D01*
G01X-1458280D02*
Y-1627180D01*
X-1466410Y-1637340D01*
G01Y-1677980D02*
X-1450150D01*
G01X-1402400Y-1679670D02*
X-1403750Y-1678830D01*
Y-1677130D01*
X-1402400Y-1676290D01*
X-1401050Y-1677130D01*
Y-1678830D01*
X-1402400Y-1679670D01*
G01X-1359390Y-1635650D02*
X-1355330Y-1630570D01*
X-1350580Y-1628030D01*
X-1345170Y-1627180D01*
X-1338390Y-1628870D01*
X-1333650Y-1633110D01*
X-1332300Y-1638190D01*
X-1332970Y-1643270D01*
X-1335680Y-1647500D01*
X-1349230Y-1655970D01*
X-1355330Y-1661890D01*
X-1359390Y-1670360D01*
X-1360740Y-1677980D01*
X-1332300D01*
G01X-1252370D02*
Y-1627180D01*
X-1234760Y-1669510D01*
X-1217150Y-1627180D01*
Y-1677980D01*
G01X-1187010Y-1627180D02*
X-1170750D01*
G01X-1178880D02*
Y-1677980D01*
G01X-1187010D02*
X-1170750D01*
G01X-1136550Y-1627180D02*
Y-1677980D01*
X-1109450D01*
G01X-2981940Y-2040010D02*
X-2952140Y-2002760D01*
G01X-2967040Y-1995990D02*
Y-2046790D01*
G01X-2952140Y-2040010D02*
X-2981940Y-2002760D01*
G01X-2987360Y-2021390D02*
X-2946720D01*
G01X-2813620Y-2031550D02*
X-2808210Y-2035780D01*
X-2802110Y-2038320D01*
X-2796690D01*
X-2791270Y-2035780D01*
X-2787210Y-2031550D01*
X-2785180Y-2025620D01*
X-2786530Y-2019690D01*
X-2789920Y-2014610D01*
X-2796010Y-2011230D01*
X-2804140Y-2009530D01*
X-2808880Y-2006150D01*
X-2810920Y-2000220D01*
X-2809560Y-1994290D01*
X-2806170Y-1990060D01*
X-2801430Y-1987520D01*
X-2796690D01*
X-2791950Y-1989210D01*
X-2787880Y-1993450D01*
G01X-2758420Y-1987520D02*
Y-2023930D01*
X-2755710Y-2031550D01*
X-2750290Y-2036630D01*
X-2743520Y-2038320D01*
X-2736750Y-2036630D01*
X-2731330Y-2031550D01*
X-2728620Y-2023930D01*
Y-1987520D01*
G01X-2701190Y-2038320D02*
Y-1987520D01*
X-2684250D01*
X-2678830Y-1990060D01*
X-2675450Y-1993450D01*
X-2674090Y-2000220D01*
X-2675450Y-2006990D01*
X-2679510Y-2011230D01*
X-2684250Y-2013770D01*
X-2701190D01*
G01X-2684250D02*
X-2674090Y-2038320D01*
G01X-2644630D02*
Y-1987520D01*
X-2618890D01*
G01X-2628370Y-2012070D02*
X-2644630D01*
G01X-2592810Y-2038320D02*
X-2575880Y-1987520D01*
X-2558950Y-2038320D01*
G01X-2565040Y-2020540D02*
X-2586720D01*
G01X-2505100Y-1991750D02*
X-2509160Y-1989210D01*
X-2513900Y-1987520D01*
X-2519320D01*
X-2525420Y-1990060D01*
X-2530160Y-1994290D01*
X-2533550Y-1999370D01*
X-2536260Y-2007840D01*
X-2536930Y-2015460D01*
X-2535580Y-2023080D01*
X-2533550Y-2028160D01*
X-2529480Y-2033240D01*
X-2524740Y-2036630D01*
X-2520000Y-2038320D01*
X-2515260D01*
X-2510520Y-2036630D01*
X-2506450Y-2034090D01*
X-2503070Y-2030700D01*
G01X-2450570Y-2038320D02*
X-2477670D01*
Y-1987520D01*
X-2450570D01*
G01X-2461410Y-2012070D02*
X-2477670D01*
G01X-2361170Y-2021390D02*
X-2343550D01*
G01X-2257530Y-2038320D02*
X-2240600Y-1987520D01*
X-2223670Y-2038320D01*
G01X-2229760Y-2020540D02*
X-2251440D01*
G01X-2192850Y-1987520D02*
X-2176590D01*
G01X-2184720D02*
Y-2038320D01*
G01X-2192850D02*
X-2176590D01*
G01X-2142390D02*
Y-1987520D01*
X-2125450D01*
X-2120030Y-1990060D01*
X-2116650Y-1993450D01*
X-2115290Y-2000220D01*
X-2116650Y-2006990D01*
X-2120710Y-2011230D01*
X-2125450Y-2013770D01*
X-2142390D01*
G01X-2125450D02*
X-2115290Y-2038320D01*
G01X-2017080Y-1987520D02*
X-2022500Y-1989210D01*
X-2026560Y-1993450D01*
X-2029270Y-1998530D01*
X-2031300Y-2005300D01*
X-2031980Y-2012920D01*
X-2031300Y-2020540D01*
X-2029270Y-2027310D01*
X-2026560Y-2032390D01*
X-2022500Y-2036630D01*
X-2017080Y-2038320D01*
X-2011660Y-2036630D01*
X-2007600Y-2032390D01*
X-2004890Y-2027310D01*
X-2002860Y-2020540D01*
X-2002180Y-2012920D01*
X-2002860Y-2005300D01*
X-2004890Y-1998530D01*
X-2007600Y-1993450D01*
X-2011660Y-1989210D01*
X-2017080Y-1987520D01*
G01X-1922930Y-2038320D02*
Y-1987520D01*
X-1905320Y-2029850D01*
X-1887710Y-1987520D01*
Y-2038320D01*
G01X-1857570Y-1987520D02*
X-1841310D01*
G01X-1849440D02*
Y-2038320D01*
G01X-1857570D02*
X-1841310D01*
G01X-1807110Y-1987520D02*
Y-2038320D01*
X-1780010D01*
G01X-2981940Y563650D02*
X-2952140Y600900D01*
G01X-2967040Y607670D02*
Y556870D01*
G01X-2952140Y563650D02*
X-2981940Y600900D01*
G01X-2987360Y582270D02*
X-2946720D01*
G01X-2814300Y565340D02*
Y616140D01*
X-2800750D01*
X-2795340Y613600D01*
X-2791270Y610210D01*
X-2787880Y605130D01*
X-2785180Y599210D01*
X-2784500Y590740D01*
X-2785180Y582270D01*
X-2787880Y576350D01*
X-2791270Y571270D01*
X-2795340Y567880D01*
X-2800750Y565340D01*
X-2814300D01*
G01X-2751650Y616140D02*
X-2735390D01*
G01X-2743520D02*
Y565340D01*
G01X-2751650D02*
X-2735390D01*
G01X-2674090D02*
X-2701190D01*
Y616140D01*
X-2674090D01*
G01X-2684930Y591590D02*
X-2701190D01*
G01X-2645310Y616140D02*
Y565340D01*
X-2618210D01*
G01X-2562330D02*
X-2589430D01*
Y616140D01*
X-2562330D01*
G01X-2573170Y591590D02*
X-2589430D01*
G01X-2505100Y611910D02*
X-2509160Y614450D01*
X-2513900Y616140D01*
X-2519320D01*
X-2525420Y613600D01*
X-2530160Y609370D01*
X-2533550Y604290D01*
X-2536260Y595820D01*
X-2536930Y588200D01*
X-2535580Y580580D01*
X-2533550Y575500D01*
X-2529480Y570420D01*
X-2524740Y567030D01*
X-2520000Y565340D01*
X-2515260D01*
X-2510520Y567030D01*
X-2506450Y569570D01*
X-2503070Y572960D01*
G01X-2464120Y616140D02*
Y565340D01*
G01X-2479700Y616140D02*
X-2448540D01*
G01X-2421790Y565340D02*
Y616140D01*
X-2404850D01*
X-2399430Y613600D01*
X-2396050Y610210D01*
X-2394690Y603440D01*
X-2396050Y596670D01*
X-2400110Y592430D01*
X-2404850Y589890D01*
X-2421790D01*
G01X-2404850D02*
X-2394690Y565340D01*
G01X-2360490Y616140D02*
X-2344230D01*
G01X-2352360D02*
Y565340D01*
G01X-2360490D02*
X-2344230D01*
G01X-2281580Y611910D02*
X-2285640Y614450D01*
X-2290380Y616140D01*
X-2295800D01*
X-2301900Y613600D01*
X-2306640Y609370D01*
X-2310030Y604290D01*
X-2312740Y595820D01*
X-2313410Y588200D01*
X-2312060Y580580D01*
X-2310030Y575500D01*
X-2305960Y570420D01*
X-2301220Y567030D01*
X-2296480Y565340D01*
X-2291740D01*
X-2287000Y567030D01*
X-2282930Y569570D01*
X-2279550Y572960D01*
G01X-2193530Y582270D02*
X-2175910D01*
G01X-2085830Y565340D02*
Y616140D01*
X-2060090D01*
G01X-2069570Y591590D02*
X-2085830D01*
G01X-2030630Y565340D02*
Y616140D01*
X-2013690D01*
X-2008270Y613600D01*
X-2004890Y610210D01*
X-2003530Y603440D01*
X-2004890Y596670D01*
X-2008950Y592430D01*
X-2013690Y589890D01*
X-2030630D01*
G01X-2013690D02*
X-2003530Y565340D01*
G01X-1970010Y582270D02*
X-1952390D01*
G01X-1897190Y565340D02*
Y616140D01*
X-1922250Y579730D01*
X-1888390D01*
G01X-1793560Y565340D02*
X-1788820Y566190D01*
X-1783400Y568730D01*
X-1780010Y572960D01*
X-1778660Y578890D01*
X-1780010Y584810D01*
X-1784080Y589890D01*
X-1790170Y592430D01*
X-1796950D01*
X-1801010Y594130D01*
X-1804400Y598360D01*
X-1805750Y604290D01*
X-1803720Y610210D01*
X-1798980Y614450D01*
X-1793560Y616140D01*
X-1788140Y614450D01*
X-1783400Y610210D01*
X-1781370Y604290D01*
X-1782720Y598360D01*
X-1786110Y594130D01*
X-1790170Y592430D01*
X-1796950D01*
X-1803040Y589890D01*
X-1807110Y584810D01*
X-1808460Y578890D01*
X-1807110Y572960D01*
X-1803720Y568730D01*
X-1798300Y566190D01*
X-1793560Y565340D01*
G01X-1699410D02*
Y616140D01*
X-1681800Y573810D01*
X-1664190Y616140D01*
Y565340D01*
G01X-1634050Y616140D02*
X-1617790D01*
G01X-1625920D02*
Y565340D01*
G01X-1634050D02*
X-1617790D01*
G01X-1583590Y616140D02*
Y565340D01*
X-1556490D01*
G01X-3092350Y2859470D02*
Y2808670D01*
X-3065250D01*
G01X-3022920D02*
Y2859470D01*
X-3031050Y2849310D01*
G01Y2808670D02*
X-3014790D01*
G01X-2911160Y2859470D02*
Y2808670D01*
G01X-2926740Y2859470D02*
X-2895580D01*
G01X-2855280Y2808670D02*
X-2860700Y2809520D01*
X-2865440Y2812900D01*
X-2869500Y2817980D01*
X-2872210Y2823910D01*
X-2873570Y2830680D01*
Y2837460D01*
X-2872210Y2844230D01*
X-2869500Y2850160D01*
X-2865440Y2855240D01*
X-2860700Y2858620D01*
X-2855280Y2859470D01*
X-2849860Y2858620D01*
X-2845120Y2855240D01*
X-2841060Y2850160D01*
X-2838350Y2844230D01*
X-2836990Y2837460D01*
Y2830680D01*
X-2838350Y2823910D01*
X-2841060Y2817980D01*
X-2845120Y2812900D01*
X-2849860Y2809520D01*
X-2855280Y2808670D01*
G01X-2812950D02*
Y2859470D01*
X-2796690D01*
X-2791270Y2856930D01*
X-2787210Y2851000D01*
X-2785850Y2844230D01*
X-2787210Y2837460D01*
X-2790590Y2832380D01*
X-2796690Y2829840D01*
X-2812950D01*
G01X-2672740Y2855240D02*
X-2676800Y2857780D01*
X-2681540Y2859470D01*
X-2686960D01*
X-2693060Y2856930D01*
X-2697800Y2852700D01*
X-2701190Y2847620D01*
X-2703900Y2839150D01*
X-2704570Y2831530D01*
X-2703220Y2823910D01*
X-2701190Y2818830D01*
X-2697120Y2813750D01*
X-2692380Y2810360D01*
X-2687640Y2808670D01*
X-2682900D01*
X-2678160Y2810360D01*
X-2674090Y2812900D01*
X-2670710Y2816290D01*
G01X-2631760Y2808670D02*
X-2637180Y2809520D01*
X-2641920Y2812900D01*
X-2645980Y2817980D01*
X-2648690Y2823910D01*
X-2650050Y2830680D01*
Y2837460D01*
X-2648690Y2844230D01*
X-2645980Y2850160D01*
X-2641920Y2855240D01*
X-2637180Y2858620D01*
X-2631760Y2859470D01*
X-2626340Y2858620D01*
X-2621600Y2855240D01*
X-2617540Y2850160D01*
X-2614830Y2844230D01*
X-2613470Y2837460D01*
Y2830680D01*
X-2614830Y2823910D01*
X-2617540Y2817980D01*
X-2621600Y2812900D01*
X-2626340Y2809520D01*
X-2631760Y2808670D01*
G01X-2591460D02*
Y2859470D01*
X-2560300Y2808670D01*
Y2859470D01*
G01X-2534900Y2808670D02*
Y2859470D01*
X-2521350D01*
X-2515940Y2856930D01*
X-2511870Y2853540D01*
X-2508480Y2848460D01*
X-2505780Y2842540D01*
X-2505100Y2834070D01*
X-2505780Y2825600D01*
X-2508480Y2819680D01*
X-2511870Y2814600D01*
X-2515940Y2811210D01*
X-2521350Y2808670D01*
X-2534900D01*
G01X-2479020Y2859470D02*
Y2823060D01*
X-2476310Y2815440D01*
X-2470890Y2810360D01*
X-2464120Y2808670D01*
X-2457350Y2810360D01*
X-2451930Y2815440D01*
X-2449220Y2823060D01*
Y2859470D01*
G01X-2393340Y2855240D02*
X-2397400Y2857780D01*
X-2402140Y2859470D01*
X-2407560D01*
X-2413660Y2856930D01*
X-2418400Y2852700D01*
X-2421790Y2847620D01*
X-2424500Y2839150D01*
X-2425170Y2831530D01*
X-2423820Y2823910D01*
X-2421790Y2818830D01*
X-2417720Y2813750D01*
X-2412980Y2810360D01*
X-2408240Y2808670D01*
X-2403500D01*
X-2398760Y2810360D01*
X-2394690Y2812900D01*
X-2391310Y2816290D01*
G01X-2352360Y2859470D02*
Y2808670D01*
G01X-2367940Y2859470D02*
X-2336780D01*
G01X-2296480Y2808670D02*
X-2301900Y2809520D01*
X-2306640Y2812900D01*
X-2310700Y2817980D01*
X-2313410Y2823910D01*
X-2314770Y2830680D01*
Y2837460D01*
X-2313410Y2844230D01*
X-2310700Y2850160D01*
X-2306640Y2855240D01*
X-2301900Y2858620D01*
X-2296480Y2859470D01*
X-2291060Y2858620D01*
X-2286320Y2855240D01*
X-2282260Y2850160D01*
X-2279550Y2844230D01*
X-2278190Y2837460D01*
Y2830680D01*
X-2279550Y2823910D01*
X-2282260Y2817980D01*
X-2286320Y2812900D01*
X-2291060Y2809520D01*
X-2296480Y2808670D01*
G01X-2254150D02*
Y2859470D01*
X-2237210D01*
X-2231790Y2856930D01*
X-2228410Y2853540D01*
X-2227050Y2846770D01*
X-2228410Y2840000D01*
X-2232470Y2835760D01*
X-2237210Y2833220D01*
X-2254150D01*
G01X-2237210D02*
X-2227050Y2808670D01*
G01X-2137650Y2825600D02*
X-2120030D01*
G01X-2002180Y2855240D02*
X-2006240Y2857780D01*
X-2010980Y2859470D01*
X-2016400D01*
X-2022500Y2856930D01*
X-2027240Y2852700D01*
X-2030630Y2847620D01*
X-2033340Y2839150D01*
X-2034010Y2831530D01*
X-2032660Y2823910D01*
X-2030630Y2818830D01*
X-2026560Y2813750D01*
X-2021820Y2810360D01*
X-2017080Y2808670D01*
X-2012340D01*
X-2007600Y2810360D01*
X-2003530Y2812900D01*
X-2000150Y2816290D01*
G01X-1961200Y2808670D02*
X-1966620Y2809520D01*
X-1971360Y2812900D01*
X-1975420Y2817980D01*
X-1978130Y2823910D01*
X-1979490Y2830680D01*
Y2837460D01*
X-1978130Y2844230D01*
X-1975420Y2850160D01*
X-1971360Y2855240D01*
X-1966620Y2858620D01*
X-1961200Y2859470D01*
X-1955780Y2858620D01*
X-1951040Y2855240D01*
X-1946980Y2850160D01*
X-1944270Y2844230D01*
X-1942910Y2837460D01*
Y2830680D01*
X-1944270Y2823910D01*
X-1946980Y2817980D01*
X-1951040Y2812900D01*
X-1955780Y2809520D01*
X-1961200Y2808670D01*
G01X-1918870D02*
Y2859470D01*
X-1902610D01*
X-1897190Y2856930D01*
X-1893130Y2851000D01*
X-1891770Y2844230D01*
X-1893130Y2837460D01*
X-1896510Y2832380D01*
X-1902610Y2829840D01*
X-1918870D01*
G01X-1862990Y2808670D02*
Y2859470D01*
X-1846730D01*
X-1841310Y2856930D01*
X-1837250Y2851000D01*
X-1835890Y2844230D01*
X-1837250Y2837460D01*
X-1840630Y2832380D01*
X-1846730Y2829840D01*
X-1862990D01*
G01X-1780010Y2808670D02*
X-1807110D01*
Y2859470D01*
X-1780010D01*
G01X-1790850Y2834920D02*
X-1807110D01*
G01X-1751230Y2808670D02*
Y2859470D01*
X-1734290D01*
X-1728870Y2856930D01*
X-1725490Y2853540D01*
X-1724130Y2846770D01*
X-1725490Y2840000D01*
X-1729550Y2835760D01*
X-1734290Y2833220D01*
X-1751230D01*
G01X-1734290D02*
X-1724130Y2808670D01*
G01X-1625920D02*
Y2859470D01*
X-1634050Y2849310D01*
G01Y2808670D02*
X-1617790D01*
G01X-1570040Y2806980D02*
X-1571390Y2807820D01*
Y2809520D01*
X-1570040Y2810360D01*
X-1568690Y2809520D01*
Y2807820D01*
X-1570040Y2806980D01*
G01X-1527030Y2851000D02*
X-1522970Y2856080D01*
X-1518220Y2858620D01*
X-1512810Y2859470D01*
X-1506030Y2857780D01*
X-1501290Y2853540D01*
X-1499940Y2848460D01*
X-1500610Y2843380D01*
X-1503320Y2839150D01*
X-1516870Y2830680D01*
X-1522970Y2824760D01*
X-1527030Y2816290D01*
X-1528380Y2808670D01*
X-1499940D01*
G01X-1420010D02*
Y2859470D01*
X-1402400Y2817140D01*
X-1384790Y2859470D01*
Y2808670D01*
G01X-1354650Y2859470D02*
X-1338390D01*
G01X-1346520D02*
Y2808670D01*
G01X-1354650D02*
X-1338390D01*
G01X-1304190Y2859470D02*
Y2808670D01*
X-1277090D01*
G01X-2981940Y3116510D02*
X-2952140Y3153760D01*
G01X-2967040Y3160530D02*
Y3109730D01*
G01X-2952140Y3116510D02*
X-2981940Y3153760D01*
G01X-2987360Y3135130D02*
X-2946720D01*
G01X-2813620Y3124970D02*
X-2808210Y3120740D01*
X-2802110Y3118200D01*
X-2796690D01*
X-2791270Y3120740D01*
X-2787210Y3124970D01*
X-2785180Y3130900D01*
X-2786530Y3136830D01*
X-2789920Y3141910D01*
X-2796010Y3145290D01*
X-2804140Y3146990D01*
X-2808880Y3150370D01*
X-2810920Y3156300D01*
X-2809560Y3162230D01*
X-2806170Y3166460D01*
X-2801430Y3169000D01*
X-2796690D01*
X-2791950Y3167310D01*
X-2787880Y3163070D01*
G01X-2758420Y3169000D02*
Y3132590D01*
X-2755710Y3124970D01*
X-2750290Y3119890D01*
X-2743520Y3118200D01*
X-2736750Y3119890D01*
X-2731330Y3124970D01*
X-2728620Y3132590D01*
Y3169000D01*
G01X-2701190Y3118200D02*
Y3169000D01*
X-2684250D01*
X-2678830Y3166460D01*
X-2675450Y3163070D01*
X-2674090Y3156300D01*
X-2675450Y3149530D01*
X-2679510Y3145290D01*
X-2684250Y3142750D01*
X-2701190D01*
G01X-2684250D02*
X-2674090Y3118200D01*
G01X-2644630D02*
Y3169000D01*
X-2618890D01*
G01X-2628370Y3144450D02*
X-2644630D01*
G01X-2592810Y3118200D02*
X-2575880Y3169000D01*
X-2558950Y3118200D01*
G01X-2565040Y3135980D02*
X-2586720D01*
G01X-2505100Y3164770D02*
X-2509160Y3167310D01*
X-2513900Y3169000D01*
X-2519320D01*
X-2525420Y3166460D01*
X-2530160Y3162230D01*
X-2533550Y3157150D01*
X-2536260Y3148680D01*
X-2536930Y3141060D01*
X-2535580Y3133440D01*
X-2533550Y3128360D01*
X-2529480Y3123280D01*
X-2524740Y3119890D01*
X-2520000Y3118200D01*
X-2515260D01*
X-2510520Y3119890D01*
X-2506450Y3122430D01*
X-2503070Y3125820D01*
G01X-2450570Y3118200D02*
X-2477670D01*
Y3169000D01*
X-2450570D01*
G01X-2461410Y3144450D02*
X-2477670D01*
G01X-2361170Y3135130D02*
X-2343550D01*
G01X-2257530Y3118200D02*
X-2240600Y3169000D01*
X-2223670Y3118200D01*
G01X-2229760Y3135980D02*
X-2251440D01*
G01X-2192850Y3169000D02*
X-2176590D01*
G01X-2184720D02*
Y3118200D01*
G01X-2192850D02*
X-2176590D01*
G01X-2142390D02*
Y3169000D01*
X-2125450D01*
X-2120030Y3166460D01*
X-2116650Y3163070D01*
X-2115290Y3156300D01*
X-2116650Y3149530D01*
X-2120710Y3145290D01*
X-2125450Y3142750D01*
X-2142390D01*
G01X-2125450D02*
X-2115290Y3118200D01*
G01X-2017080Y3169000D02*
X-2022500Y3167310D01*
X-2026560Y3163070D01*
X-2029270Y3157990D01*
X-2031300Y3151220D01*
X-2031980Y3143600D01*
X-2031300Y3135980D01*
X-2029270Y3129210D01*
X-2026560Y3124130D01*
X-2022500Y3119890D01*
X-2017080Y3118200D01*
X-2011660Y3119890D01*
X-2007600Y3124130D01*
X-2004890Y3129210D01*
X-2002860Y3135980D01*
X-2002180Y3143600D01*
X-2002860Y3151220D01*
X-2004890Y3157990D01*
X-2007600Y3163070D01*
X-2011660Y3167310D01*
X-2017080Y3169000D01*
G01X-1922930Y3118200D02*
Y3169000D01*
X-1905320Y3126670D01*
X-1887710Y3169000D01*
Y3118200D01*
G01X-1857570Y3169000D02*
X-1841310D01*
G01X-1849440D02*
Y3118200D01*
G01X-1857570D02*
X-1841310D01*
G01X-1807110Y3169000D02*
Y3118200D01*
X-1780010D01*
G54D12*
G01X-4679000Y-1385380D02*
Y2516060D01*
X-3155000D01*
Y-1385380D01*
X-4679000D01*
G01X-250000Y0D02*
X-793000D01*
G01X-543000Y1650130D02*
Y0D01*
G01X-605500Y400000D02*
X-543000Y0D01*
X-480500Y400000D01*
X-605500D01*
G01X-653240Y1888250D02*
Y2205750D01*
X-798910Y1978210D01*
X-602050D01*
G01X-385520Y2205750D02*
X-417020Y2195170D01*
X-440640Y2168710D01*
X-456390Y2136960D01*
X-468200Y2094620D01*
X-472130Y2047000D01*
X-468200Y1999370D01*
X-456390Y1957040D01*
X-440640Y1925280D01*
X-417020Y1898830D01*
X-385520Y1888250D01*
X-354030Y1898830D01*
X-330400Y1925280D01*
X-314650Y1957040D01*
X-302840Y1999370D01*
X-298910Y2047000D01*
X-302840Y2094620D01*
X-314650Y2136960D01*
X-330400Y2168710D01*
X-354030Y2195170D01*
X-385520Y2205750D01*
G01X-543000Y2443870D02*
Y4000000D01*
G01X-480500Y3600000D02*
X-543000Y4000000D01*
X-605500Y3600000D01*
X-480500D01*
G01X-250000Y4000000D02*
X-793000D01*
G01X0Y4250000D02*
Y4824000D01*
G01X1521290Y4574000D02*
X0D01*
G01X400000Y4636500D02*
X0Y4574000D01*
X400000Y4511500D01*
Y4636500D01*
G01X460000Y-4351000D02*
Y-1796000D01*
X13058400D01*
Y-4351000D01*
X460000D01*
G01X739520Y-3557250D02*
Y-3239750D01*
X889140D01*
G01X834010Y-3393200D02*
X739520D01*
G01X1082050Y-3239750D02*
X1176530D01*
G01X1129290D02*
Y-3557250D01*
G01X1082050D02*
X1176530D01*
G01X1467870Y-3398500D02*
X1546620D01*
Y-3493750D01*
X1522990Y-3525510D01*
X1495430Y-3546670D01*
X1456060Y-3557250D01*
X1416690Y-3546670D01*
X1389130Y-3525510D01*
X1365510Y-3493750D01*
X1349760Y-3456710D01*
X1341880Y-3414380D01*
Y-3377330D01*
X1349760Y-3345590D01*
X1365510Y-3308540D01*
X1389130Y-3276790D01*
X1412750Y-3255630D01*
X1444250Y-3239750D01*
X1471810D01*
X1503300Y-3250330D01*
X1526930Y-3271500D01*
G01X1672600Y-3239750D02*
Y-3467290D01*
X1688340Y-3514930D01*
X1719840Y-3546670D01*
X1759210Y-3557250D01*
X1798580Y-3546670D01*
X1830080Y-3514930D01*
X1845820Y-3467290D01*
Y-3239750D01*
G01X1995430Y-3557250D02*
Y-3239750D01*
X2093850D01*
X2125350Y-3255630D01*
X2145040Y-3276790D01*
X2152910Y-3319130D01*
X2145040Y-3361460D01*
X2121410Y-3387910D01*
X2093850Y-3403800D01*
X1995430D01*
G01X2093850D02*
X2152910Y-3557250D01*
G01X2467870D02*
X2310390D01*
Y-3239750D01*
X2467870D01*
G01X2404880Y-3393200D02*
X2310390D01*
G01X460000Y-3716000D02*
X13058400D01*
G01X460000Y-2446000D02*
X13058400D01*
G01X460000Y-3081000D02*
X13058400D01*
G01X1924760Y4415250D02*
Y4732750D01*
X1779090Y4505210D01*
X1975950D01*
G01X2192480Y4732750D02*
X2160980Y4722170D01*
X2137360Y4695710D01*
X2121610Y4663960D01*
X2109800Y4621620D01*
X2105870Y4574000D01*
X2109800Y4526370D01*
X2121610Y4484040D01*
X2137360Y4452280D01*
X2160980Y4425830D01*
X2192480Y4415250D01*
X2223970Y4425830D01*
X2247600Y4452280D01*
X2263350Y4484040D01*
X2275160Y4526370D01*
X2279090Y4574000D01*
X2275160Y4621620D01*
X2263350Y4663960D01*
X2247600Y4695710D01*
X2223970Y4722170D01*
X2192480Y4732750D01*
G01X2408810Y-2922250D02*
X2507240Y-2604750D01*
X2605670Y-2922250D01*
G01X2570230Y-2811130D02*
X2444240D01*
G01X2743460Y-2604750D02*
Y-2922250D01*
X2900940D01*
G01X3058420Y-2604750D02*
Y-2922250D01*
X3215900D01*
G01X3680470Y-2604750D02*
Y-2832290D01*
X3696210Y-2879930D01*
X3727710Y-2911670D01*
X3767080Y-2922250D01*
X3806450Y-2911670D01*
X3837950Y-2879930D01*
X3853690Y-2832290D01*
Y-2604750D01*
G01X3991490Y-2922250D02*
Y-2604750D01*
X4172590Y-2922250D01*
Y-2604750D01*
G01X4349760D02*
X4444240D01*
G01X4397000D02*
Y-2922250D01*
G01X4349760D02*
X4444240D01*
G01X4711960Y-2604750D02*
Y-2922250D01*
G01X4621410Y-2604750D02*
X4802510D01*
G01X4944240Y-2879930D02*
X4975740Y-2906380D01*
X5011170Y-2922250D01*
X5042670D01*
X5074160Y-2906380D01*
X5097790Y-2879930D01*
X5109600Y-2842870D01*
X5101730Y-2805840D01*
X5082040Y-2774090D01*
X5046600Y-2752910D01*
X4999360Y-2742330D01*
X4971800Y-2721170D01*
X4959990Y-2684130D01*
X4967870Y-2647080D01*
X4987550Y-2620630D01*
X5015110Y-2604750D01*
X5042670D01*
X5070230Y-2615330D01*
X5093850Y-2641790D01*
G01X5558410Y-2922250D02*
X5656840Y-2604750D01*
X5755270Y-2922250D01*
G01X5719830Y-2811130D02*
X5593840D01*
G01X5893060Y-2922250D02*
Y-2604750D01*
X5991480D01*
X6022980Y-2620630D01*
X6042670Y-2641790D01*
X6050540Y-2684130D01*
X6042670Y-2726460D01*
X6019040Y-2752910D01*
X5991480Y-2768800D01*
X5893060D01*
G01X5991480D02*
X6050540Y-2922250D01*
G01X6365500D02*
X6208020D01*
Y-2604750D01*
X6365500D01*
G01X6302510Y-2758200D02*
X6208020D01*
G01X6869440Y-2604750D02*
X6963920D01*
G01X6916680D02*
Y-2922250D01*
G01X6869440D02*
X6963920D01*
G01X7141090D02*
Y-2604750D01*
X7322190Y-2922250D01*
Y-2604750D01*
G01X7759190Y-2922250D02*
Y-2604750D01*
X7861560Y-2869330D01*
X7963930Y-2604750D01*
Y-2922250D01*
G01X8129280Y-2604750D02*
X8223760D01*
G01X8176520D02*
Y-2922250D01*
G01X8129280D02*
X8223760D01*
G01X8412740Y-2604750D02*
Y-2922250D01*
X8570220D01*
G01X8727700Y-2604750D02*
Y-2922250D01*
X8885180D01*
G01X9074160Y-2604750D02*
X9168640D01*
G01X9121400D02*
Y-2922250D01*
G01X9074160D02*
X9168640D01*
G01X9333990D02*
Y-2604750D01*
X9436360Y-2869330D01*
X9538730Y-2604750D01*
Y-2922250D01*
G01X9830060D02*
X9672580D01*
Y-2604750D01*
X9830060D01*
G01X9767070Y-2758200D02*
X9672580D01*
G01X10066280Y-2604750D02*
Y-2922250D01*
G01X9975730Y-2604750D02*
X10156830D01*
G01X10459980Y-2922250D02*
X10302500D01*
Y-2604750D01*
X10459980D01*
G01X10396990Y-2758200D02*
X10302500D01*
G01X10617460Y-2922250D02*
Y-2604750D01*
X10715880D01*
X10747380Y-2620630D01*
X10767070Y-2641790D01*
X10774940Y-2684130D01*
X10767070Y-2726460D01*
X10743440Y-2752910D01*
X10715880Y-2768800D01*
X10617460D01*
G01X10715880D02*
X10774940Y-2922250D01*
G01X10928480Y-2879930D02*
X10959980Y-2906380D01*
X10995410Y-2922250D01*
X11026910D01*
X11058400Y-2906380D01*
X11082030Y-2879930D01*
X11093840Y-2842870D01*
X11085970Y-2805840D01*
X11066280Y-2774090D01*
X11030840Y-2752910D01*
X10983600Y-2742330D01*
X10956040Y-2721170D01*
X10944230Y-2684130D01*
X10952110Y-2647080D01*
X10971790Y-2620630D01*
X10999350Y-2604750D01*
X11026910D01*
X11054470Y-2615330D01*
X11078090Y-2641790D01*
G01X2548710Y4574000D02*
X4000000D01*
G01X2743460Y-3081000D02*
Y-4351000D01*
G01X3337940Y-3557250D02*
Y-3239750D01*
X3487560D01*
G01X3432430Y-3393200D02*
X3337940D01*
G01X3680470Y-3239750D02*
X3774950D01*
G01X3727710D02*
Y-3557250D01*
G01X3680470D02*
X3774950D01*
G01X3952120D02*
Y-3239750D01*
X4133220Y-3557250D01*
Y-3239750D01*
G01X4310390D02*
X4404870D01*
G01X4357630D02*
Y-3557250D01*
G01X4310390D02*
X4404870D01*
G01X4589910Y-3514930D02*
X4621410Y-3541380D01*
X4656840Y-3557250D01*
X4688340D01*
X4719830Y-3541380D01*
X4743460Y-3514930D01*
X4755270Y-3477870D01*
X4747400Y-3440840D01*
X4727710Y-3409090D01*
X4692270Y-3387910D01*
X4645030Y-3377330D01*
X4617470Y-3356170D01*
X4605660Y-3319130D01*
X4613540Y-3282080D01*
X4633220Y-3255630D01*
X4660780Y-3239750D01*
X4688340D01*
X4715900Y-3250330D01*
X4739520Y-3276790D01*
G01X4904870Y-3557250D02*
Y-3239750D01*
G01X5070230D02*
Y-3557250D01*
G01Y-3398500D02*
X4904870D01*
G01X5381250Y-3557250D02*
X5223770D01*
Y-3239750D01*
X5381250D01*
G01X5318260Y-3393200D02*
X5223770D01*
G01X5530860Y-3557250D02*
Y-3239750D01*
X5609590D01*
X5641090Y-3255630D01*
X5664710Y-3276790D01*
X5684400Y-3308540D01*
X5700150Y-3345590D01*
X5704080Y-3398500D01*
X5700150Y-3451420D01*
X5684400Y-3488460D01*
X5664710Y-3520220D01*
X5641090Y-3541380D01*
X5609590Y-3557250D01*
X5530860D01*
G01X5814320Y-3663080D02*
X6050540D01*
G01X6164710Y-3514930D02*
X6196210Y-3541380D01*
X6231640Y-3557250D01*
X6263140D01*
X6294630Y-3541380D01*
X6318260Y-3514930D01*
X6330070Y-3477870D01*
X6322200Y-3440840D01*
X6302510Y-3409090D01*
X6267070Y-3387910D01*
X6219830Y-3377330D01*
X6192270Y-3356170D01*
X6180460Y-3319130D01*
X6188340Y-3282080D01*
X6208020Y-3255630D01*
X6235580Y-3239750D01*
X6263140D01*
X6290700Y-3250330D01*
X6314320Y-3276790D01*
G01X6515110Y-3239750D02*
X6609590D01*
G01X6562350D02*
Y-3557250D01*
G01X6515110D02*
X6609590D01*
G01X6802500Y-3239750D02*
X6952120D01*
X6802500Y-3557250D01*
X6952120D01*
G01X7271010D02*
X7113530D01*
Y-3239750D01*
X7271010D01*
G01X7208020Y-3393200D02*
X7113530D01*
G01X2735590Y-2272250D02*
Y-1954750D01*
X2814320D01*
X2845820Y-1970630D01*
X2869440Y-1991790D01*
X2889130Y-2023540D01*
X2904880Y-2060590D01*
X2908810Y-2113500D01*
X2904880Y-2166420D01*
X2889130Y-2203460D01*
X2869440Y-2235220D01*
X2845820Y-2256380D01*
X2814320Y-2272250D01*
X2735590D01*
G01X3058420D02*
Y-1954750D01*
X3156840D01*
X3188340Y-1970630D01*
X3208030Y-1991790D01*
X3215900Y-2034130D01*
X3208030Y-2076460D01*
X3184400Y-2102910D01*
X3156840Y-2118800D01*
X3058420D01*
G01X3156840D02*
X3215900Y-2272250D01*
G01X3404880Y-1954750D02*
X3499360D01*
G01X3452120D02*
Y-2272250D01*
G01X3404880D02*
X3499360D01*
G01X3688340Y-1954750D02*
Y-2272250D01*
X3845820D01*
G01X4003300Y-1954750D02*
Y-2272250D01*
X4160780D01*
G01X4798570Y-1981210D02*
X4774950Y-1965330D01*
X4747400Y-1954750D01*
X4715900D01*
X4680460Y-1970630D01*
X4652910Y-1997080D01*
X4633220Y-2028840D01*
X4617470Y-2081750D01*
X4613530Y-2129380D01*
X4621410Y-2177000D01*
X4633220Y-2208750D01*
X4656840Y-2240510D01*
X4684400Y-2261670D01*
X4711960Y-2272250D01*
X4739520D01*
X4767080Y-2261670D01*
X4790700Y-2245800D01*
X4810390Y-2224640D01*
G01X4944240Y-2272250D02*
Y-1954750D01*
G01X5109600D02*
Y-2272250D01*
G01Y-2113500D02*
X4944240D01*
G01X5243450Y-2272250D02*
X5341880Y-1954750D01*
X5440310Y-2272250D01*
G01X5404870Y-2161130D02*
X5278880D01*
G01X5578100Y-2272250D02*
Y-1954750D01*
X5676520D01*
X5708020Y-1970630D01*
X5727710Y-1991790D01*
X5735580Y-2034130D01*
X5727710Y-2076460D01*
X5704080Y-2102910D01*
X5676520Y-2118800D01*
X5578100D01*
G01X5676520D02*
X5735580Y-2272250D01*
G01X5971800Y-1954750D02*
Y-2272250D01*
G01X5881250Y-1954750D02*
X6062350D01*
G01X6286760Y-2282830D02*
X6278880Y-2277540D01*
Y-2266960D01*
X6286760Y-2261670D01*
X6294640Y-2266960D01*
Y-2277540D01*
X6286760Y-2282830D01*
G01Y-2139970D02*
X6278880Y-2134670D01*
Y-2124090D01*
X6286760Y-2118800D01*
X6294640Y-2124090D01*
Y-2134670D01*
X6286760Y-2139970D01*
G01X6916680Y-1954750D02*
Y-2272250D01*
G01X6826130Y-1954750D02*
X7007230D01*
G01X7231640Y-2272250D02*
X7200140Y-2266960D01*
X7172590Y-2245800D01*
X7148960Y-2214040D01*
X7133210Y-2177000D01*
X7125340Y-2134670D01*
Y-2092330D01*
X7133210Y-2050000D01*
X7148960Y-2012960D01*
X7172590Y-1981210D01*
X7200140Y-1960040D01*
X7231640Y-1954750D01*
X7263130Y-1960040D01*
X7290690Y-1981210D01*
X7314320Y-2012960D01*
X7330070Y-2050000D01*
X7337940Y-2092330D01*
Y-2134670D01*
X7330070Y-2177000D01*
X7314320Y-2214040D01*
X7290690Y-2245800D01*
X7263130Y-2266960D01*
X7231640Y-2272250D01*
G01X7467860D02*
Y-1954750D01*
X7562350D01*
X7593840Y-1970630D01*
X7617470Y-2007670D01*
X7625340Y-2050000D01*
X7617470Y-2092330D01*
X7597780Y-2124090D01*
X7562350Y-2139970D01*
X7467860D01*
G01X8176520Y-1954750D02*
Y-2272250D01*
G01X8121400Y-2060590D02*
X8231640D01*
G01X8491480Y-2272250D02*
X8467860Y-2266960D01*
X8444240Y-2245800D01*
X8428480Y-2208750D01*
X8420610Y-2166420D01*
X8428480Y-2124090D01*
X8444240Y-2087040D01*
X8467860Y-2065880D01*
X8491480Y-2060590D01*
X8515100Y-2065880D01*
X8538720Y-2087040D01*
X8554470Y-2124090D01*
X8558410Y-2166420D01*
X8554470Y-2208750D01*
X8538720Y-2245800D01*
X8515100Y-2266960D01*
X8491480Y-2272250D01*
G01X9152890Y-2102910D02*
X9168640Y-2087040D01*
X9180450Y-2060590D01*
X9188330Y-2023540D01*
X9180450Y-1991790D01*
X9164710Y-1970630D01*
X9137150Y-1954750D01*
X9030850D01*
Y-2272250D01*
X9160770D01*
X9188330Y-2251090D01*
X9204080Y-2219330D01*
X9211950Y-2182290D01*
X9204080Y-2145260D01*
X9180450Y-2113500D01*
X9152890Y-2102910D01*
X9030850D01*
G01X9436360Y-2272250D02*
X9404860Y-2266960D01*
X9377310Y-2245800D01*
X9353680Y-2214040D01*
X9337930Y-2177000D01*
X9330060Y-2134670D01*
Y-2092330D01*
X9337930Y-2050000D01*
X9353680Y-2012960D01*
X9377310Y-1981210D01*
X9404860Y-1960040D01*
X9436360Y-1954750D01*
X9467850Y-1960040D01*
X9495410Y-1981210D01*
X9519040Y-2012960D01*
X9534790Y-2050000D01*
X9542660Y-2092330D01*
Y-2134670D01*
X9534790Y-2177000D01*
X9519040Y-2214040D01*
X9495410Y-2245800D01*
X9467850Y-2266960D01*
X9436360Y-2272250D01*
G01X9751320Y-1954750D02*
Y-2272250D01*
G01X9660770Y-1954750D02*
X9841870D01*
G01X10066280D02*
Y-2272250D01*
G01X9975730Y-1954750D02*
X10156830D01*
G01X10381240Y-2272250D02*
X10349740Y-2266960D01*
X10322190Y-2245800D01*
X10298560Y-2214040D01*
X10282810Y-2177000D01*
X10274940Y-2134670D01*
Y-2092330D01*
X10282810Y-2050000D01*
X10298560Y-2012960D01*
X10322190Y-1981210D01*
X10349740Y-1960040D01*
X10381240Y-1954750D01*
X10412730Y-1960040D01*
X10440290Y-1981210D01*
X10463920Y-2012960D01*
X10479670Y-2050000D01*
X10487540Y-2092330D01*
Y-2134670D01*
X10479670Y-2177000D01*
X10463920Y-2214040D01*
X10440290Y-2245800D01*
X10412730Y-2266960D01*
X10381240Y-2272250D01*
G01X10593830D02*
Y-1954750D01*
X10696200Y-2219330D01*
X10798570Y-1954750D01*
Y-2272250D01*
G01X4000000Y4250000D02*
Y4824000D01*
G01X3600000Y4511500D02*
X4000000Y4574000D01*
X3600000Y4636500D01*
Y4511500D01*
G01X4987550Y-3874750D02*
X4956050Y-3885330D01*
X4932430Y-3911790D01*
X4916680Y-3943540D01*
X4904870Y-3985880D01*
X4900940Y-4033500D01*
X4904870Y-4081130D01*
X4916680Y-4123460D01*
X4932430Y-4155220D01*
X4956050Y-4181670D01*
X4987550Y-4192250D01*
X5019040Y-4181670D01*
X5042670Y-4155220D01*
X5058420Y-4123460D01*
X5070230Y-4081130D01*
X5074160Y-4033500D01*
X5070230Y-3985880D01*
X5058420Y-3943540D01*
X5042670Y-3911790D01*
X5019040Y-3885330D01*
X4987550Y-3874750D01*
G01X5302510Y-4202830D02*
X5294630Y-4197540D01*
Y-4186960D01*
X5302510Y-4181670D01*
X5310390Y-4186960D01*
Y-4197540D01*
X5302510Y-4202830D01*
G01X5664710Y-4192250D02*
Y-3874750D01*
X5519040Y-4102290D01*
X5715900D01*
G01X7861560Y-3081000D02*
Y-4351000D01*
G01X8609590Y-4192250D02*
Y-3874750D01*
X8704080D01*
X8735570Y-3890630D01*
X8759200Y-3927670D01*
X8767070Y-3970000D01*
X8759200Y-4012330D01*
X8739510Y-4044090D01*
X8704080Y-4059970D01*
X8609590D01*
G01X8924550Y-3874750D02*
Y-4192250D01*
X9082030D01*
G01X9219820D02*
X9318250Y-3874750D01*
X9416680Y-4192250D01*
G01X9381240Y-4081130D02*
X9255250D01*
G01X9633210Y-3874750D02*
Y-4192250D01*
G01X9542660Y-3874750D02*
X9723760D01*
G01X10026910Y-4192250D02*
X9869430D01*
Y-3874750D01*
X10026910D01*
G01X9963920Y-4028200D02*
X9869430D01*
G01X10176520Y-4192250D02*
Y-3874750D01*
X10255250D01*
X10286750Y-3890630D01*
X10310370Y-3911790D01*
X10330060Y-3943540D01*
X10345810Y-3980590D01*
X10349740Y-4033500D01*
X10345810Y-4086420D01*
X10330060Y-4123460D01*
X10310370Y-4155220D01*
X10286750Y-4176380D01*
X10255250Y-4192250D01*
X10176520D01*
G01X8609590Y-3557250D02*
Y-3239750D01*
X8704080D01*
X8735570Y-3255630D01*
X8759200Y-3292670D01*
X8767070Y-3335000D01*
X8759200Y-3377330D01*
X8739510Y-3409090D01*
X8704080Y-3424970D01*
X8609590D01*
G01X8924550Y-3239750D02*
Y-3557250D01*
X9082030D01*
G01X9219820D02*
X9318250Y-3239750D01*
X9416680Y-3557250D01*
G01X9381240Y-3446130D02*
X9255250D01*
G01X9633210Y-3239750D02*
Y-3557250D01*
G01X9542660Y-3239750D02*
X9723760D01*
G01X10026910Y-3557250D02*
X9869430D01*
Y-3239750D01*
X10026910D01*
G01X9963920Y-3393200D02*
X9869430D01*
G01X10176520Y-3557250D02*
Y-3239750D01*
X10255250D01*
X10286750Y-3255630D01*
X10310370Y-3276790D01*
X10330060Y-3308540D01*
X10345810Y-3345590D01*
X10349740Y-3398500D01*
X10345810Y-3451420D01*
X10330060Y-3488460D01*
X10310370Y-3520220D01*
X10286750Y-3541380D01*
X10255250Y-3557250D01*
X10176520D01*
G01X11916670Y-4192250D02*
Y-3874750D01*
X11869430Y-3938250D01*
G01Y-4192250D02*
X11963910D01*
G01X12145020Y-4144640D02*
X12168630Y-4171090D01*
X12196190Y-4186960D01*
X12231630Y-4192250D01*
X12267070Y-4181670D01*
X12294620Y-4160510D01*
X12314310Y-4123460D01*
X12318240Y-4081130D01*
X12310370Y-4038800D01*
X12290680Y-4012330D01*
X12263120Y-3991170D01*
X12235570Y-3985880D01*
X12208010Y-3991170D01*
X12172580Y-4012330D01*
X12184390Y-3874750D01*
X12290680D01*
G01X11089900Y-3081000D02*
Y-4351000D01*
G01X11759190Y-3557250D02*
X11727690Y-3551960D01*
X11700140Y-3530800D01*
X11676510Y-3499040D01*
X11660760Y-3462000D01*
X11652890Y-3419670D01*
Y-3377330D01*
X11660760Y-3335000D01*
X11676510Y-3297960D01*
X11700140Y-3266210D01*
X11727690Y-3245040D01*
X11759190Y-3239750D01*
X11790680Y-3245040D01*
X11818240Y-3266210D01*
X11841870Y-3297960D01*
X11857620Y-3335000D01*
X11865490Y-3377330D01*
Y-3419670D01*
X11857620Y-3462000D01*
X11841870Y-3499040D01*
X11818240Y-3530800D01*
X11790680Y-3551960D01*
X11759190Y-3557250D01*
G01X11790680Y-3472580D02*
X11837930Y-3557250D01*
G01X12074150Y-3239750D02*
Y-3557250D01*
G01X11983600Y-3239750D02*
X12164700D01*
G01X12389110Y-3557250D02*
Y-3414380D01*
X12310370Y-3239750D01*
G01X12467850D02*
X12389110Y-3414380D01*
M02*
