G04 ================== begin FILE IDENTIFICATION RECORD ==================*
G04 Layout Name:  C:/Users/anama/Documents/allegro/PROIECTPART2.brd*
G04 Film Name:    SSTOP*
G04 File Format:  Gerber RS274X*
G04 File Origin:  Cadence Allegro 17.2-S025*
G04 Origin Date:  Sun Dec 14 19:09:46 2025*
G04 *
G04 Layer:  REF DES/SILKSCREEN_TOP*
G04 Layer:  PACKAGE GEOMETRY/SILKSCREEN_TOP*
G04 Layer:  BOARD GEOMETRY/SILKSCREEN_TOP*
G04 *
G04 Offset:    (0.0000 0.0000)*
G04 Mirror:    No*
G04 Mode:      Positive*
G04 Rotation:  0*
G04 FullContactRelief:  No*
G04 UndefLineWidth:     0.1000*
G04 ================== end FILE IDENTIFICATION RECORD ====================*
%FSLAX25Y25*MOMM*%
%IR0*IPPOS*OFA0.00000B0.00000*MIA0B0*SFA1.00000B1.00000*%
%ADD10C,.2*%
%ADD11C,.1524*%
%ADD12C,.1778*%
%ADD13C,.1*%
G75*
%LPD*%
G75*
G54D10*
G01X1103500Y546000D02*
Y321000D01*
G01X988500Y431000D02*
X1218500D01*
G01X1103500Y581000D02*
G03X953500Y431000I0J-150000D01*
G03X1108500Y281000I150081J0D01*
G03X1253500Y431000I-4915J149834D01*
G03X1103500Y581000I-150000J0D01*
G01X853500Y291000D02*
Y181000D01*
X1353500D01*
Y211000D01*
G01X853500Y571000D02*
Y681000D01*
X1353500D01*
Y651000D01*
G01Y456000D02*
Y406000D01*
G01X2832500Y285000D02*
G03X2982500Y435000I0J150000D01*
G03X2827500Y585000I-150081J0D01*
G03X2682500Y435000I4915J-149834D01*
G03X2832500Y285000I150000J0D01*
G01X2582500Y410000D02*
Y460000D01*
G01X3082500Y295000D02*
Y185000D01*
X2582500D01*
Y215000D01*
G01X3082500Y575000D02*
Y685000D01*
X2582500D01*
Y655000D01*
G01X2629500Y3473000D02*
Y3698000D01*
G01X2744500Y3588000D02*
X2514500D01*
G01X2629500Y3438000D02*
G03X2779500Y3588000I0J150000D01*
G03X2624500Y3738000I-150081J0D01*
G03X2479500Y3588000I4915J-149834D01*
G03X2629500Y3438000I150000J0D01*
G01X2379500Y3563000D02*
Y3613000D01*
G01X2879500Y3448000D02*
Y3338000D01*
X2379500D01*
Y3368000D01*
G01X2879500Y3728000D02*
Y3838000D01*
X2379500D01*
Y3808000D01*
G01X2832500Y320000D02*
Y545000D01*
G01X2947500Y435000D02*
X2717500D01*
G54D11*
G01X235120Y1818250D02*
X641520D01*
G01Y1627750D02*
X235120D01*
G01D02*
Y1818250D01*
G01X788520Y1950750D02*
X382120D01*
G01D02*
Y2141250D01*
G01D02*
X788520D01*
G01X639880Y2928750D02*
X233480D01*
G01D02*
Y3119250D01*
G01D02*
X639880D01*
G01X641520Y1818250D02*
Y1627750D01*
G01X788520Y2141250D02*
Y1950750D01*
G01X878250Y2787880D02*
Y2381480D01*
G01D02*
X687750D01*
G01D02*
Y2787880D01*
G01D02*
X878250D01*
G01X639880Y3119250D02*
Y2928750D01*
G01X943120Y3371250D02*
X1349520D01*
G01Y3180750D02*
X943120D01*
G01D02*
Y3371250D01*
G01X1335880Y3461750D02*
X929480D01*
G01D02*
Y3652250D01*
G01D02*
X1335880D01*
G01X1734250Y664880D02*
Y258480D01*
G01D02*
X1543750D01*
G01D02*
Y664880D01*
G01X1817750Y314120D02*
Y720520D01*
G01X2008250Y314120D02*
X1817750D01*
G01X1543750Y664880D02*
X1734250D01*
G01X1817750Y720520D02*
X2008250D01*
G01X1894250Y3023880D02*
Y2617480D01*
G01D02*
X1703750D01*
G01D02*
Y3023880D01*
G01X1627190Y2910000D02*
X1605600Y2888410D01*
G01D02*
Y2779190D01*
G01D02*
X1204280D01*
G01D02*
Y3040810D01*
G01X1349520Y3371250D02*
Y3180750D01*
G01X1335880Y3652250D02*
Y3461750D01*
G01X1456750Y3344120D02*
Y3750520D01*
G01X1647250D02*
Y3344120D01*
G01D02*
X1456750D01*
G01X1703750Y3023880D02*
X1894250D01*
G01X1204280Y3040810D02*
X1605600D01*
G01D02*
Y2931590D01*
G01D02*
X1627190Y2910000D01*
G01X1456750Y3750520D02*
X1647250D01*
G01X2258250Y631880D02*
Y225480D01*
G01D02*
X2067750D01*
G01D02*
Y631880D01*
G01X2008250Y720520D02*
Y314120D01*
G01X2143120Y947250D02*
X2549520D01*
G01D02*
Y756750D01*
G01D02*
X2143120D01*
G01D02*
Y947250D01*
G01X2880880Y1334750D02*
X2474480D01*
G01D02*
Y1525250D01*
G01X2805250Y835480D02*
X2614750D01*
G01D02*
Y1241880D01*
G01D02*
X2805250D01*
G01X2067750Y631880D02*
X2258250D01*
G01X2474480Y1525250D02*
X2880880D01*
G01X2020120Y1795250D02*
X2426520D01*
G01D02*
Y1604750D01*
G01D02*
X2020120D01*
G01D02*
Y1795250D01*
G01X3501250Y172480D02*
X3310750D01*
G01D02*
Y578880D01*
G01D02*
X3501250D01*
G01X3093250Y1578880D02*
Y1172480D01*
G01D02*
X2902750D01*
G01D02*
Y1578880D01*
G01X2880880Y1525250D02*
Y1334750D01*
G01X2805250Y1241880D02*
Y835480D01*
G01X3349250Y1584880D02*
Y1178480D01*
G01D02*
X3158750D01*
G01D02*
Y1584880D01*
G01X2718750Y2073120D02*
Y2479520D01*
G01X2909250D02*
Y2073120D01*
G01D02*
X2718750D01*
G01X3001750Y1807120D02*
Y2213520D01*
G01X3192250D02*
Y1807120D01*
G01D02*
X3001750D01*
G01X2902750Y1578880D02*
X3093250D01*
G01X3158750Y1584880D02*
X3349250D01*
G01X3305750Y1913120D02*
Y2319520D01*
G01X3496250Y1913120D02*
X3305750D01*
G01X2718750Y2479520D02*
X2909250D01*
G01X3001750Y2213520D02*
X3192250D01*
G01X2955750Y2373120D02*
Y2779520D01*
G01D02*
X3146250D01*
G01D02*
Y2373120D01*
G01D02*
X2955750D01*
G01X3305750Y2319520D02*
X3496250D01*
G01X3236250Y3887880D02*
Y3481480D01*
G01D02*
X3045750D01*
G01D02*
Y3887880D01*
G01X3366810Y3408720D02*
Y3007400D01*
G01D02*
X3257590D01*
G01D02*
X3236000Y2985810D01*
G01D02*
X3214410Y3007400D01*
G01D02*
X3105190D01*
G01D02*
Y3408720D01*
G01D02*
X3366810D01*
G01X3045750Y3887880D02*
X3236250D01*
G01X3501250Y578880D02*
Y172480D01*
G01X3869810Y579720D02*
Y178400D01*
G01D02*
X3760590D01*
G01D02*
X3739000Y156810D01*
G01D02*
X3717410Y178400D01*
G01D02*
X3608190D01*
G01D02*
Y579720D01*
G01D02*
X3869810D01*
G01X3679750Y952120D02*
Y1358520D01*
G01D02*
X3870250D01*
G01D02*
Y952120D01*
G01D02*
X3679750D01*
G01X3496250Y2319520D02*
Y1913120D01*
G01X3782250Y2362880D02*
Y1956480D01*
G01D02*
X3591750D01*
G01D02*
Y2362880D01*
G01X3881250Y1817880D02*
Y1411480D01*
G01D02*
X3690750D01*
G01D02*
Y1817880D01*
G01D02*
X3881250D01*
G01X3591750Y2362880D02*
X3782250D01*
G54D12*
G01X389770Y2165000D02*
Y2215800D01*
X406710D01*
X412130Y2213260D01*
X415510Y2209870D01*
X416870Y2203100D01*
X415510Y2196330D01*
X411450Y2192090D01*
X406710Y2189550D01*
X389770D01*
G01X406710D02*
X416870Y2165000D01*
G01X467330D02*
Y2215800D01*
X442270Y2179390D01*
X476130D01*
G01X276000Y2660320D02*
X275150Y2654900D01*
X271770Y2650160D01*
X266690Y2646100D01*
X260760Y2643390D01*
X253990Y2642030D01*
X247210D01*
X240440Y2643390D01*
X234510Y2646100D01*
X229430Y2650160D01*
X226050Y2654900D01*
X225200Y2660320D01*
X226050Y2665740D01*
X229430Y2670480D01*
X234510Y2674540D01*
X240440Y2677250D01*
X247210Y2678610D01*
X253990D01*
X260760Y2677250D01*
X266690Y2674540D01*
X271770Y2670480D01*
X275150Y2665740D01*
X276000Y2660320D01*
G01X262450Y2665740D02*
X276000Y2673870D01*
G01Y2714850D02*
X264990Y2716200D01*
X255680Y2718230D01*
X247210Y2720940D01*
X237900Y2724330D01*
X225200Y2729750D01*
Y2702650D01*
G01X182000Y2990770D02*
X131200D01*
Y3007710D01*
X133740Y3013130D01*
X137130Y3016510D01*
X143900Y3017870D01*
X150670Y3016510D01*
X154910Y3012450D01*
X157450Y3007710D01*
Y2990770D01*
G01Y3007710D02*
X182000Y3017870D01*
G01X174380Y3045300D02*
X178610Y3049360D01*
X181150Y3054100D01*
X182000Y3060200D01*
X180310Y3066300D01*
X176920Y3071040D01*
X170990Y3074420D01*
X164220Y3075100D01*
X157450Y3073750D01*
X153210Y3070360D01*
X149830Y3065620D01*
X148980Y3060880D01*
X149830Y3056140D01*
X153210Y3050040D01*
X131200Y3052070D01*
Y3070360D01*
G01X769770Y740000D02*
Y790800D01*
X786030D01*
X791450Y788260D01*
X795510Y782330D01*
X796870Y775560D01*
X795510Y768790D01*
X792130Y763710D01*
X786030Y761170D01*
X769770D01*
G01X826330Y782330D02*
X830390Y787410D01*
X835140Y789950D01*
X840550Y790800D01*
X847330Y789110D01*
X852070Y784870D01*
X853420Y779790D01*
X852750Y774710D01*
X850040Y770480D01*
X836490Y762010D01*
X830390Y756090D01*
X826330Y747620D01*
X824980Y740000D01*
X853420D01*
G01X689840Y1235770D02*
X694920Y1239160D01*
X698310Y1243220D01*
X700000Y1247970D01*
X698310Y1253380D01*
X694920Y1257450D01*
X689840Y1261510D01*
X683070Y1262870D01*
X649200D01*
G01Y1288270D02*
X700000Y1305200D01*
X649200Y1322130D01*
G01X653430Y1375980D02*
X650890Y1371920D01*
X649200Y1367180D01*
Y1361760D01*
X651740Y1355660D01*
X655970Y1350920D01*
X661050Y1347530D01*
X669520Y1344820D01*
X677140Y1344150D01*
X684760Y1345500D01*
X689840Y1347530D01*
X694920Y1351600D01*
X698310Y1356340D01*
X700000Y1361080D01*
Y1365820D01*
X698310Y1370560D01*
X695770Y1374630D01*
X692380Y1378010D01*
G01X653430Y1431860D02*
X650890Y1427800D01*
X649200Y1423060D01*
Y1417640D01*
X651740Y1411540D01*
X655970Y1406800D01*
X661050Y1403410D01*
X669520Y1400700D01*
X677140Y1400030D01*
X684760Y1401380D01*
X689840Y1403410D01*
X694920Y1407480D01*
X698310Y1412220D01*
X700000Y1416960D01*
Y1421700D01*
X698310Y1426440D01*
X695770Y1430510D01*
X692380Y1433890D01*
G01X717000Y1679770D02*
X666200D01*
Y1696710D01*
X668740Y1702130D01*
X672130Y1705510D01*
X678900Y1706870D01*
X685670Y1705510D01*
X689910Y1701450D01*
X692450Y1696710D01*
Y1679770D01*
G01Y1696710D02*
X717000Y1706870D01*
G01X706840Y1734300D02*
X712770Y1738360D01*
X716150Y1743780D01*
X717000Y1749880D01*
X716150Y1755300D01*
X711920Y1760720D01*
X706840Y1764100D01*
X701760Y1764780D01*
X695830Y1763420D01*
X691600Y1758680D01*
X689910Y1753940D01*
Y1747850D01*
G01Y1753940D02*
X687370Y1758010D01*
X683130Y1761390D01*
X678050Y1762750D01*
X672970Y1761390D01*
X668740Y1758010D01*
X666200Y1751910D01*
X667050Y1745810D01*
X670430Y1739720D01*
G01X950000Y1596320D02*
X949150Y1590900D01*
X945770Y1586160D01*
X940690Y1582100D01*
X934760Y1579390D01*
X927990Y1578030D01*
X921210D01*
X914440Y1579390D01*
X908510Y1582100D01*
X903430Y1586160D01*
X900050Y1590900D01*
X899200Y1596320D01*
X900050Y1601740D01*
X903430Y1606480D01*
X908510Y1610540D01*
X914440Y1613250D01*
X921210Y1614610D01*
X927990D01*
X934760Y1613250D01*
X940690Y1610540D01*
X945770Y1606480D01*
X949150Y1601740D01*
X950000Y1596320D01*
G01X936450Y1601740D02*
X950000Y1609870D01*
G01Y1652200D02*
X899200D01*
X909360Y1644070D01*
G01X950000D02*
Y1660330D01*
G01X775220Y2348570D02*
X771160Y2351110D01*
X766420Y2352800D01*
X761000D01*
X754900Y2350260D01*
X750160Y2346030D01*
X746770Y2340950D01*
X744060Y2332480D01*
X743390Y2324860D01*
X744740Y2317240D01*
X746770Y2312160D01*
X750840Y2307080D01*
X755580Y2303690D01*
X760320Y2302000D01*
X765060D01*
X769800Y2303690D01*
X773870Y2306230D01*
X777250Y2309620D01*
G01X801300Y2312160D02*
X805360Y2306230D01*
X810780Y2302850D01*
X816880Y2302000D01*
X822300Y2302850D01*
X827720Y2307080D01*
X831100Y2312160D01*
X831780Y2317240D01*
X830420Y2323170D01*
X825680Y2327400D01*
X820940Y2329090D01*
X814850D01*
G01X820940D02*
X825010Y2331630D01*
X828390Y2335870D01*
X829750Y2340950D01*
X828390Y2346030D01*
X825010Y2350260D01*
X818910Y2352800D01*
X812810Y2351950D01*
X806720Y2348570D01*
G01X985770Y3109000D02*
Y3159800D01*
X1002710D01*
X1008130Y3157260D01*
X1011510Y3153870D01*
X1012870Y3147100D01*
X1011510Y3140330D01*
X1007450Y3136090D01*
X1002710Y3133550D01*
X985770D01*
G01X1002710D02*
X1012870Y3109000D01*
G01X1042330Y3130170D02*
X1047070Y3136090D01*
X1051140Y3139480D01*
X1056550Y3141170D01*
X1061300Y3139480D01*
X1064680Y3136090D01*
X1067390Y3131010D01*
X1068070Y3125090D01*
X1067390Y3120010D01*
X1064680Y3114930D01*
X1060620Y3110690D01*
X1055880Y3109000D01*
X1050460Y3110690D01*
X1045720Y3115770D01*
X1043010Y3123390D01*
X1042330Y3131860D01*
X1043680Y3142870D01*
X1045720Y3148790D01*
X1049100Y3154720D01*
X1053850Y3158950D01*
X1058590Y3159800D01*
X1063330Y3158110D01*
X1066720Y3153870D01*
G01X902000Y3470770D02*
X851200D01*
Y3487710D01*
X853740Y3493130D01*
X857130Y3496510D01*
X863900Y3497870D01*
X870670Y3496510D01*
X874910Y3492450D01*
X877450Y3487710D01*
Y3470770D01*
G01Y3487710D02*
X902000Y3497870D01*
G01Y3538850D02*
X890990Y3540200D01*
X881680Y3542230D01*
X873210Y3544940D01*
X863900Y3548330D01*
X851200Y3553750D01*
Y3526650D01*
G01X745420Y3552000D02*
Y3602800D01*
X758970D01*
X764380Y3600260D01*
X768450Y3596870D01*
X771840Y3591790D01*
X774540Y3585870D01*
X775220Y3577400D01*
X774540Y3568930D01*
X771840Y3563010D01*
X768450Y3557930D01*
X764380Y3554540D01*
X758970Y3552000D01*
X745420D01*
G01X816200D02*
Y3602800D01*
X808070Y3592640D01*
G01Y3552000D02*
X824330D01*
G01X577840Y3225770D02*
X582920Y3229160D01*
X586310Y3233220D01*
X588000Y3237970D01*
X586310Y3243380D01*
X582920Y3247450D01*
X577840Y3251510D01*
X571070Y3252870D01*
X537200D01*
G01Y3278270D02*
X588000Y3295200D01*
X537200Y3312130D01*
G01X588000Y3364630D02*
Y3337530D01*
X537200D01*
Y3364630D01*
G01X561750Y3353790D02*
Y3337530D01*
G01X588000Y3420510D02*
Y3393410D01*
X537200D01*
Y3420510D01*
G01X561750Y3409670D02*
Y3393410D01*
G01X1635770Y172000D02*
Y222800D01*
X1652710D01*
X1658130Y220260D01*
X1661510Y216870D01*
X1662870Y210100D01*
X1661510Y203330D01*
X1657450Y199090D01*
X1652710Y196550D01*
X1635770D01*
G01X1652710D02*
X1662870Y172000D01*
G01X1692330Y214330D02*
X1696390Y219410D01*
X1701140Y221950D01*
X1706550Y222800D01*
X1713330Y221110D01*
X1718070Y216870D01*
X1719420Y211790D01*
X1718750Y206710D01*
X1716040Y202480D01*
X1702490Y194010D01*
X1696390Y188090D01*
X1692330Y179620D01*
X1690980Y172000D01*
X1719420D01*
G01X1927220Y271570D02*
X1923160Y274110D01*
X1918420Y275800D01*
X1913000D01*
X1906900Y273260D01*
X1902160Y269030D01*
X1898770Y263950D01*
X1896060Y255480D01*
X1895390Y247860D01*
X1896740Y240240D01*
X1898770Y235160D01*
X1902840Y230080D01*
X1907580Y226690D01*
X1912320Y225000D01*
X1917060D01*
X1921800Y226690D01*
X1925870Y229230D01*
X1929250Y232620D01*
G01X1955330Y267330D02*
X1959390Y272410D01*
X1964140Y274950D01*
X1969550Y275800D01*
X1976330Y274110D01*
X1981070Y269870D01*
X1982420Y264790D01*
X1981750Y259710D01*
X1979040Y255480D01*
X1965490Y247010D01*
X1959390Y241090D01*
X1955330Y232620D01*
X1953980Y225000D01*
X1982420D01*
G01X1298200Y1170390D02*
X1349000Y1187320D01*
X1298200Y1204250D01*
G01X1332070Y1235750D02*
Y1252010D01*
G01X1321060Y1243200D02*
X1343070D01*
G01X1846320Y1499000D02*
X1840900Y1499850D01*
X1836160Y1503230D01*
X1832100Y1508310D01*
X1829390Y1514240D01*
X1828030Y1521010D01*
Y1527790D01*
X1829390Y1534560D01*
X1832100Y1540490D01*
X1836160Y1545570D01*
X1840900Y1548950D01*
X1846320Y1549800D01*
X1851740Y1548950D01*
X1856480Y1545570D01*
X1860540Y1540490D01*
X1863250Y1534560D01*
X1864610Y1527790D01*
Y1521010D01*
X1863250Y1514240D01*
X1860540Y1508310D01*
X1856480Y1503230D01*
X1851740Y1499850D01*
X1846320Y1499000D01*
G01X1851740Y1512550D02*
X1859870Y1499000D01*
G01X1889330Y1520170D02*
X1894070Y1526090D01*
X1898140Y1529480D01*
X1903550Y1531170D01*
X1908300Y1529480D01*
X1911680Y1526090D01*
X1914390Y1521010D01*
X1915070Y1515090D01*
X1914390Y1510010D01*
X1911680Y1504930D01*
X1907620Y1500690D01*
X1902880Y1499000D01*
X1897460Y1500690D01*
X1892720Y1505770D01*
X1890010Y1513390D01*
X1889330Y1521860D01*
X1890680Y1532870D01*
X1892720Y1538790D01*
X1896100Y1544720D01*
X1900850Y1548950D01*
X1905590Y1549800D01*
X1910330Y1548110D01*
X1913720Y1543870D01*
G01X1437390Y2300800D02*
X1454320Y2250000D01*
X1471250Y2300800D01*
G01X1501390Y2266930D02*
X1519010D01*
G01X1978000Y2662770D02*
X1927200D01*
Y2679710D01*
X1929740Y2685130D01*
X1933130Y2688510D01*
X1939900Y2689870D01*
X1946670Y2688510D01*
X1950910Y2684450D01*
X1953450Y2679710D01*
Y2662770D01*
G01Y2679710D02*
X1978000Y2689870D01*
G01X1935670Y2719330D02*
X1930590Y2723390D01*
X1928050Y2728140D01*
X1927200Y2733550D01*
X1928890Y2740330D01*
X1933130Y2745070D01*
X1938210Y2746420D01*
X1943290Y2745750D01*
X1947520Y2743040D01*
X1955990Y2729490D01*
X1961910Y2723390D01*
X1970380Y2719330D01*
X1978000Y2717980D01*
Y2746420D01*
G01X1967840Y2773180D02*
X1973770Y2777240D01*
X1977150Y2782660D01*
X1978000Y2788760D01*
X1977150Y2794180D01*
X1972920Y2799600D01*
X1967840Y2802980D01*
X1962760Y2803660D01*
X1956830Y2802300D01*
X1952600Y2797560D01*
X1950910Y2792820D01*
Y2786730D01*
G01Y2792820D02*
X1948370Y2796890D01*
X1944130Y2800270D01*
X1939050Y2801630D01*
X1933970Y2800270D01*
X1929740Y2796890D01*
X1927200Y2790790D01*
X1928050Y2784690D01*
X1931430Y2778600D01*
G01X1590000Y2370320D02*
X1589150Y2364900D01*
X1585770Y2360160D01*
X1580690Y2356100D01*
X1574760Y2353390D01*
X1567990Y2352030D01*
X1561210D01*
X1554440Y2353390D01*
X1548510Y2356100D01*
X1543430Y2360160D01*
X1540050Y2364900D01*
X1539200Y2370320D01*
X1540050Y2375740D01*
X1543430Y2380480D01*
X1548510Y2384540D01*
X1554440Y2387250D01*
X1561210Y2388610D01*
X1567990D01*
X1574760Y2387250D01*
X1580690Y2384540D01*
X1585770Y2380480D01*
X1589150Y2375740D01*
X1590000Y2370320D01*
G01X1576450Y2375740D02*
X1590000Y2383870D01*
G01X1547670Y2413330D02*
X1542590Y2417390D01*
X1540050Y2422140D01*
X1539200Y2427550D01*
X1540890Y2434330D01*
X1545130Y2439070D01*
X1550210Y2440420D01*
X1555290Y2439750D01*
X1559520Y2437040D01*
X1567990Y2423490D01*
X1573910Y2417390D01*
X1582380Y2413330D01*
X1590000Y2411980D01*
Y2440420D01*
G01X1397000Y2333320D02*
X1396150Y2327900D01*
X1392770Y2323160D01*
X1387690Y2319100D01*
X1381760Y2316390D01*
X1374990Y2315030D01*
X1368210D01*
X1361440Y2316390D01*
X1355510Y2319100D01*
X1350430Y2323160D01*
X1347050Y2327900D01*
X1346200Y2333320D01*
X1347050Y2338740D01*
X1350430Y2343480D01*
X1355510Y2347540D01*
X1361440Y2350250D01*
X1368210Y2351610D01*
X1374990D01*
X1381760Y2350250D01*
X1387690Y2347540D01*
X1392770Y2343480D01*
X1396150Y2338740D01*
X1397000Y2333320D01*
G01X1383450Y2338740D02*
X1397000Y2346870D01*
G01Y2389200D02*
X1396150Y2393940D01*
X1393610Y2399360D01*
X1389380Y2402750D01*
X1383450Y2404100D01*
X1377530Y2402750D01*
X1372450Y2398680D01*
X1369910Y2392590D01*
Y2385810D01*
X1368210Y2381750D01*
X1363980Y2378360D01*
X1358050Y2377010D01*
X1352130Y2379040D01*
X1347890Y2383780D01*
X1346200Y2389200D01*
X1347890Y2394620D01*
X1352130Y2399360D01*
X1358050Y2401390D01*
X1363980Y2400040D01*
X1368210Y2396650D01*
X1369910Y2392590D01*
Y2385810D01*
X1372450Y2379720D01*
X1377530Y2375650D01*
X1383450Y2374300D01*
X1389380Y2375650D01*
X1393610Y2379040D01*
X1396150Y2384460D01*
X1397000Y2389200D01*
G01X1487420Y2697000D02*
Y2747800D01*
X1500970D01*
X1506380Y2745260D01*
X1510450Y2741870D01*
X1513840Y2736790D01*
X1516540Y2730870D01*
X1517220Y2722400D01*
X1516540Y2713930D01*
X1513840Y2708010D01*
X1510450Y2702930D01*
X1506380Y2699540D01*
X1500970Y2697000D01*
X1487420D01*
G01X1566330D02*
Y2747800D01*
X1541270Y2711390D01*
X1575130D01*
G01X1920770Y3321160D02*
X1924160Y3316080D01*
X1928220Y3312690D01*
X1932970Y3311000D01*
X1938380Y3312690D01*
X1942450Y3316080D01*
X1946510Y3321160D01*
X1947870Y3327930D01*
Y3361800D01*
G01X1973270D02*
X1990200Y3311000D01*
X2007130Y3361800D01*
G01X2050140Y3336400D02*
X2063690D01*
Y3321160D01*
X2059630Y3316080D01*
X2054890Y3312690D01*
X2048110Y3311000D01*
X2041340Y3312690D01*
X2036600Y3316080D01*
X2032530Y3321160D01*
X2029820Y3327090D01*
X2028470Y3333860D01*
Y3339790D01*
X2029820Y3344870D01*
X2032530Y3350790D01*
X2036600Y3355870D01*
X2040660Y3359260D01*
X2046080Y3361800D01*
X2050820D01*
X2056240Y3360110D01*
X2060300Y3356720D01*
G01X2087740Y3317770D02*
X2093150Y3313540D01*
X2099250Y3311000D01*
X2104670D01*
X2110090Y3313540D01*
X2114150Y3317770D01*
X2116180Y3323700D01*
X2114830Y3329630D01*
X2111440Y3334710D01*
X2105350Y3338090D01*
X2097220Y3339790D01*
X2092480Y3343170D01*
X2090440Y3349100D01*
X2091800Y3355030D01*
X2095190Y3359260D01*
X2099930Y3361800D01*
X2104670D01*
X2109410Y3360110D01*
X2113480Y3355870D01*
G01X1476770Y3785000D02*
Y3835800D01*
X1493710D01*
X1499130Y3833260D01*
X1502510Y3829870D01*
X1503870Y3823100D01*
X1502510Y3816330D01*
X1498450Y3812090D01*
X1493710Y3809550D01*
X1476770D01*
G01X1493710D02*
X1503870Y3785000D01*
G01X1534680Y3790930D02*
X1539430Y3786690D01*
X1544850Y3785000D01*
X1550260Y3786690D01*
X1555010Y3791770D01*
X1558390Y3799390D01*
X1559750Y3807010D01*
Y3816330D01*
X1558390Y3823950D01*
X1555010Y3830720D01*
X1550940Y3834110D01*
X1546200Y3835800D01*
X1540780Y3834110D01*
X1536720Y3830720D01*
X1534010Y3825640D01*
X1532650Y3818870D01*
X1534010Y3812940D01*
X1537390Y3807010D01*
X1541460Y3803630D01*
X1546200Y3802780D01*
X1551620Y3804470D01*
X1555680Y3808710D01*
X1559750Y3816330D01*
G01X2292430Y270220D02*
X2289890Y266160D01*
X2288200Y261420D01*
Y256000D01*
X2290740Y249900D01*
X2294970Y245160D01*
X2300050Y241770D01*
X2308520Y239060D01*
X2316140Y238390D01*
X2323760Y239740D01*
X2328840Y241770D01*
X2333920Y245840D01*
X2337310Y250580D01*
X2339000Y255320D01*
Y260060D01*
X2337310Y264800D01*
X2334770Y268870D01*
X2331380Y272250D01*
G01X2339000Y311200D02*
X2288200D01*
X2298360Y303070D01*
G01X2339000D02*
Y319330D01*
G01X2140770Y984000D02*
Y1034800D01*
X2157710D01*
X2163130Y1032260D01*
X2166510Y1028870D01*
X2167870Y1022100D01*
X2166510Y1015330D01*
X2162450Y1011090D01*
X2157710Y1008550D01*
X2140770D01*
G01X2157710D02*
X2167870Y984000D01*
G01X2210200D02*
Y1034800D01*
X2202070Y1024640D01*
G01Y984000D02*
X2218330D01*
G01X2598770Y740000D02*
Y790800D01*
X2615030D01*
X2620450Y788260D01*
X2624510Y782330D01*
X2625870Y775560D01*
X2624510Y768790D01*
X2621130Y763710D01*
X2615030Y761170D01*
X2598770D01*
G01X2668200Y740000D02*
Y790800D01*
X2660070Y780640D01*
G01Y740000D02*
X2676330D01*
G01X2510770Y1613000D02*
Y1663800D01*
X2527710D01*
X2533130Y1661260D01*
X2536510Y1657870D01*
X2537870Y1651100D01*
X2536510Y1644330D01*
X2532450Y1640090D01*
X2527710Y1637550D01*
X2510770D01*
G01X2527710D02*
X2537870Y1613000D01*
G01X2580200D02*
Y1663800D01*
X2572070Y1653640D01*
G01Y1613000D02*
X2588330D01*
G01X2644210D02*
Y1663800D01*
X2619150Y1627390D01*
X2653010D01*
G01X2242770Y1488000D02*
Y1538800D01*
X2259710D01*
X2265130Y1536260D01*
X2268510Y1532870D01*
X2269870Y1526100D01*
X2268510Y1519330D01*
X2264450Y1515090D01*
X2259710Y1512550D01*
X2242770D01*
G01X2259710D02*
X2269870Y1488000D01*
G01X2312200D02*
Y1538800D01*
X2304070Y1528640D01*
G01Y1488000D02*
X2320330D01*
G01X2368080Y1538800D02*
X2362660Y1537110D01*
X2358600Y1532870D01*
X2355890Y1527790D01*
X2353860Y1521020D01*
X2353180Y1513400D01*
X2353860Y1505780D01*
X2355890Y1499010D01*
X2358600Y1493930D01*
X2362660Y1489690D01*
X2368080Y1488000D01*
X2373500Y1489690D01*
X2377560Y1493930D01*
X2380270Y1499010D01*
X2382300Y1505780D01*
X2382980Y1513400D01*
X2382300Y1521020D01*
X2380270Y1527790D01*
X2377560Y1532870D01*
X2373500Y1537110D01*
X2368080Y1538800D01*
G01X2552320Y2074000D02*
X2546900Y2074850D01*
X2542160Y2078230D01*
X2538100Y2083310D01*
X2535390Y2089240D01*
X2534030Y2096010D01*
Y2102790D01*
X2535390Y2109560D01*
X2538100Y2115490D01*
X2542160Y2120570D01*
X2546900Y2123950D01*
X2552320Y2124800D01*
X2557740Y2123950D01*
X2562480Y2120570D01*
X2566540Y2115490D01*
X2569250Y2109560D01*
X2570610Y2102790D01*
Y2096010D01*
X2569250Y2089240D01*
X2566540Y2083310D01*
X2562480Y2078230D01*
X2557740Y2074850D01*
X2552320Y2074000D01*
G01X2557740Y2087550D02*
X2565870Y2074000D01*
G01X2593300Y2084160D02*
X2597360Y2078230D01*
X2602780Y2074850D01*
X2608880Y2074000D01*
X2614300Y2074850D01*
X2619720Y2079080D01*
X2623100Y2084160D01*
X2623780Y2089240D01*
X2622420Y2095170D01*
X2617680Y2099400D01*
X2612940Y2101090D01*
X2606850D01*
G01X2612940D02*
X2617010Y2103630D01*
X2620390Y2107870D01*
X2621750Y2112950D01*
X2620390Y2118030D01*
X2617010Y2122260D01*
X2610910Y2124800D01*
X2604810Y2123950D01*
X2598720Y2120570D01*
G01X2475000Y2542320D02*
X2474150Y2536900D01*
X2470770Y2532160D01*
X2465690Y2528100D01*
X2459760Y2525390D01*
X2452990Y2524030D01*
X2446210D01*
X2439440Y2525390D01*
X2433510Y2528100D01*
X2428430Y2532160D01*
X2425050Y2536900D01*
X2424200Y2542320D01*
X2425050Y2547740D01*
X2428430Y2552480D01*
X2433510Y2556540D01*
X2439440Y2559250D01*
X2446210Y2560610D01*
X2452990D01*
X2459760Y2559250D01*
X2465690Y2556540D01*
X2470770Y2552480D01*
X2474150Y2547740D01*
X2475000Y2542320D01*
G01X2461450Y2547740D02*
X2475000Y2555870D01*
G01Y2606330D02*
X2424200D01*
X2460610Y2581270D01*
Y2615130D01*
G01X2296000Y2970320D02*
X2295150Y2964900D01*
X2291770Y2960160D01*
X2286690Y2956100D01*
X2280760Y2953390D01*
X2273990Y2952030D01*
X2267210D01*
X2260440Y2953390D01*
X2254510Y2956100D01*
X2249430Y2960160D01*
X2246050Y2964900D01*
X2245200Y2970320D01*
X2246050Y2975740D01*
X2249430Y2980480D01*
X2254510Y2984540D01*
X2260440Y2987250D01*
X2267210Y2988610D01*
X2273990D01*
X2280760Y2987250D01*
X2286690Y2984540D01*
X2291770Y2980480D01*
X2295150Y2975740D01*
X2296000Y2970320D01*
G01X2282450Y2975740D02*
X2296000Y2983870D01*
G01X2288380Y3011300D02*
X2292610Y3015360D01*
X2295150Y3020100D01*
X2296000Y3026200D01*
X2294310Y3032300D01*
X2290920Y3037040D01*
X2284990Y3040420D01*
X2278220Y3041100D01*
X2271450Y3039750D01*
X2267210Y3036360D01*
X2263830Y3031620D01*
X2262980Y3026880D01*
X2263830Y3022140D01*
X2267210Y3016040D01*
X2245200Y3018070D01*
Y3036360D01*
G01X2492770Y3232000D02*
Y3282800D01*
X2509030D01*
X2514450Y3280260D01*
X2518510Y3274330D01*
X2519870Y3267560D01*
X2518510Y3260790D01*
X2515130Y3255710D01*
X2509030Y3253170D01*
X2492770D01*
G01X2547300Y3242160D02*
X2551360Y3236230D01*
X2556780Y3232850D01*
X2562880Y3232000D01*
X2568300Y3232850D01*
X2573720Y3237080D01*
X2577100Y3242160D01*
X2577780Y3247240D01*
X2576420Y3253170D01*
X2571680Y3257400D01*
X2566940Y3259090D01*
X2560850D01*
G01X2566940D02*
X2571010Y3261630D01*
X2574390Y3265870D01*
X2575750Y3270950D01*
X2574390Y3276030D01*
X2571010Y3280260D01*
X2564910Y3282800D01*
X2558810Y3281950D01*
X2552720Y3278570D01*
G01X3273000Y227770D02*
X3222200D01*
Y244710D01*
X3224740Y250130D01*
X3228130Y253510D01*
X3234900Y254870D01*
X3241670Y253510D01*
X3245910Y249450D01*
X3248450Y244710D01*
Y227770D01*
G01Y244710D02*
X3273000Y254870D01*
G01X3230670Y284330D02*
X3225590Y288390D01*
X3223050Y293140D01*
X3222200Y298550D01*
X3223890Y305330D01*
X3228130Y310070D01*
X3233210Y311420D01*
X3238290Y310750D01*
X3242520Y308040D01*
X3250990Y294490D01*
X3256910Y288390D01*
X3265380Y284330D01*
X3273000Y282980D01*
Y311420D01*
G01X3230670Y340210D02*
X3225590Y344270D01*
X3223050Y349020D01*
X3222200Y354430D01*
X3223890Y361210D01*
X3228130Y365950D01*
X3233210Y367300D01*
X3238290Y366630D01*
X3242520Y363920D01*
X3250990Y350370D01*
X3256910Y344270D01*
X3265380Y340210D01*
X3273000Y338860D01*
Y367300D01*
G01X3124770Y829000D02*
Y879800D01*
X3141710D01*
X3147130Y877260D01*
X3150510Y873870D01*
X3151870Y867100D01*
X3150510Y860330D01*
X3146450Y856090D01*
X3141710Y853550D01*
X3124770D01*
G01X3141710D02*
X3151870Y829000D01*
G01X3194200D02*
X3190140Y829850D01*
X3186070Y833230D01*
X3183360Y839160D01*
X3182010Y845930D01*
X3183360Y852710D01*
X3186070Y858630D01*
X3190140Y862020D01*
X3194200Y862870D01*
X3198260Y862020D01*
X3202330Y858630D01*
X3205040Y852710D01*
X3205720Y845930D01*
X3205040Y839160D01*
X3202330Y833230D01*
X3198260Y829850D01*
X3194200Y829000D01*
G01X3250080Y879800D02*
Y829000D01*
G01X3240600Y862870D02*
X3259560D01*
G01X3318150Y829000D02*
Y862870D01*
G01Y856940D02*
X3315440Y860330D01*
X3311380Y862020D01*
X3306640Y862870D01*
X3301900Y861170D01*
X3297830Y857790D01*
X3295120Y852710D01*
X3293770Y845930D01*
X3295120Y839160D01*
X3297830Y834080D01*
X3301900Y830690D01*
X3306640Y829000D01*
X3311380Y829850D01*
X3315440Y832390D01*
X3318150Y835770D01*
G01X3352360Y829000D02*
Y862870D01*
G01Y856090D02*
X3355740Y859480D01*
X3359130Y862020D01*
X3363870Y862870D01*
X3367260Y862020D01*
X3371320Y859480D01*
G01X3417720Y862870D02*
Y829000D01*
G01Y876410D02*
X3416370Y877260D01*
Y878950D01*
X3417720Y879800D01*
X3419070Y878950D01*
Y877260D01*
X3417720Y876410D01*
G01X3462080Y862870D02*
Y839160D01*
X3464790Y833230D01*
X3468860Y829850D01*
X3473600Y829000D01*
X3478340Y829850D01*
X3482410Y833230D01*
X3485120Y839160D01*
G01Y829000D02*
Y862870D01*
G01X3567750Y829000D02*
Y879800D01*
X3585360Y837470D01*
X3602970Y879800D01*
Y829000D01*
G01X3653430D02*
Y862870D01*
G01Y856940D02*
X3650720Y860330D01*
X3646660Y862020D01*
X3641920Y862870D01*
X3637180Y861170D01*
X3633110Y857790D01*
X3630400Y852710D01*
X3629050Y845930D01*
X3630400Y839160D01*
X3633110Y834080D01*
X3637180Y830690D01*
X3641920Y829000D01*
X3646660Y829850D01*
X3650720Y832390D01*
X3653430Y835770D01*
G01X3687640Y829000D02*
Y862870D01*
G01Y856090D02*
X3691020Y859480D01*
X3694410Y862020D01*
X3699150Y862870D01*
X3702540Y862020D01*
X3706600Y859480D01*
G01X3753000Y862870D02*
Y829000D01*
G01Y876410D02*
X3751650Y877260D01*
Y878950D01*
X3753000Y879800D01*
X3754350Y878950D01*
Y877260D01*
X3753000Y876410D01*
G01X3797360Y829000D02*
Y862870D01*
G01Y854400D02*
X3800070Y858630D01*
X3804140Y862020D01*
X3809560Y862870D01*
X3814300Y862020D01*
X3818360Y858630D01*
X3820400Y852710D01*
Y829000D01*
G01X3876950D02*
Y862870D01*
G01Y856940D02*
X3874240Y860330D01*
X3870180Y862020D01*
X3865440Y862870D01*
X3860700Y861170D01*
X3856630Y857790D01*
X3853920Y852710D01*
X3852570Y845930D01*
X3853920Y839160D01*
X3856630Y834080D01*
X3860700Y830690D01*
X3865440Y829000D01*
X3870180Y829850D01*
X3874240Y832390D01*
X3876950Y835770D01*
G01X2913450Y724000D02*
Y774800D01*
X2888390Y738390D01*
X2922250D01*
G01X2946300Y734160D02*
X2950360Y728230D01*
X2955780Y724850D01*
X2961880Y724000D01*
X2967300Y724850D01*
X2972720Y729080D01*
X2976100Y734160D01*
X2976780Y739240D01*
X2975420Y745170D01*
X2970680Y749400D01*
X2965940Y751090D01*
X2959850D01*
G01X2965940D02*
X2970010Y753630D01*
X2973390Y757870D01*
X2974750Y762950D01*
X2973390Y768030D01*
X2970010Y772260D01*
X2963910Y774800D01*
X2957810Y773950D01*
X2951720Y770570D01*
G01X3002180Y734160D02*
X3006240Y728230D01*
X3011660Y724850D01*
X3017760Y724000D01*
X3023180Y724850D01*
X3028600Y729080D01*
X3031980Y734160D01*
X3032660Y739240D01*
X3031300Y745170D01*
X3026560Y749400D01*
X3021820Y751090D01*
X3015730D01*
G01X3021820D02*
X3025890Y753630D01*
X3029270Y757870D01*
X3030630Y762950D01*
X3029270Y768030D01*
X3025890Y772260D01*
X3019790Y774800D01*
X3013690Y773950D01*
X3007600Y770570D01*
G01X3086510Y724000D02*
X3059410D01*
Y774800D01*
X3086510D01*
G01X3075670Y750250D02*
X3059410D01*
G01X3127490Y714690D02*
X3130190Y725690D01*
G01X3255500Y770570D02*
X3251440Y773110D01*
X3246700Y774800D01*
X3241280D01*
X3235180Y772260D01*
X3230440Y768030D01*
X3227050Y762950D01*
X3224340Y754480D01*
X3223670Y746860D01*
X3225020Y739240D01*
X3227050Y734160D01*
X3231120Y729080D01*
X3235860Y725690D01*
X3240600Y724000D01*
X3245340D01*
X3250080Y725690D01*
X3254150Y728230D01*
X3257530Y731620D01*
G01X3310030Y724000D02*
X3282930D01*
Y774800D01*
X3310030D01*
G01X3299190Y750250D02*
X3282930D01*
G01X3339490Y724000D02*
Y774800D01*
X3365230D01*
G01X3355750Y750250D02*
X3339490D01*
G01X3399430Y740930D02*
X3417050D01*
G01X3450570Y724000D02*
Y774800D01*
X3466830D01*
X3472250Y772260D01*
X3476310Y766330D01*
X3477670Y759560D01*
X3476310Y752790D01*
X3472930Y747710D01*
X3466830Y745170D01*
X3450570D01*
G01X3510520Y724000D02*
Y757870D01*
G01Y751090D02*
X3513900Y754480D01*
X3517290Y757020D01*
X3522030Y757870D01*
X3525420Y757020D01*
X3529480Y754480D01*
G01X3618890Y766330D02*
X3622950Y771410D01*
X3627700Y773950D01*
X3633110Y774800D01*
X3639890Y773110D01*
X3644630Y768870D01*
X3645980Y763790D01*
X3645310Y758710D01*
X3642600Y754480D01*
X3629050Y746010D01*
X3622950Y740090D01*
X3618890Y731620D01*
X3617540Y724000D01*
X3645980D01*
G01X3672740Y731620D02*
X3676800Y727390D01*
X3681540Y724850D01*
X3687640Y724000D01*
X3693740Y725690D01*
X3698480Y729080D01*
X3701860Y735010D01*
X3702540Y741780D01*
X3701190Y748550D01*
X3697800Y752790D01*
X3693060Y756170D01*
X3688320Y757020D01*
X3683580Y756170D01*
X3677480Y752790D01*
X3679510Y774800D01*
X3697800D01*
G01X3734710Y740930D02*
X3752330D01*
G01X3786530Y766330D02*
X3790590Y771410D01*
X3795340Y773950D01*
X3800750Y774800D01*
X3807530Y773110D01*
X3812270Y768870D01*
X3813620Y763790D01*
X3812950Y758710D01*
X3810240Y754480D01*
X3796690Y746010D01*
X3790590Y740090D01*
X3786530Y731620D01*
X3785180Y724000D01*
X3813620D01*
G01X3842410Y745170D02*
X3847150Y751090D01*
X3851220Y754480D01*
X3856630Y756170D01*
X3861380Y754480D01*
X3864760Y751090D01*
X3867470Y746010D01*
X3868150Y740090D01*
X3867470Y735010D01*
X3864760Y729930D01*
X3860700Y725690D01*
X3855960Y724000D01*
X3850540Y725690D01*
X3845800Y730770D01*
X3843090Y738390D01*
X3842410Y746860D01*
X3843760Y757870D01*
X3845800Y763790D01*
X3849180Y769720D01*
X3853930Y773950D01*
X3858670Y774800D01*
X3863410Y773110D01*
X3866800Y768870D01*
G01X2950770Y1087000D02*
Y1137800D01*
X2967710D01*
X2973130Y1135260D01*
X2976510Y1131870D01*
X2977870Y1125100D01*
X2976510Y1118330D01*
X2972450Y1114090D01*
X2967710Y1111550D01*
X2950770D01*
G01X2967710D02*
X2977870Y1087000D01*
G01X3020200D02*
Y1137800D01*
X3012070Y1127640D01*
G01Y1087000D02*
X3028330D01*
G01X3061180Y1097160D02*
X3065240Y1091230D01*
X3070660Y1087850D01*
X3076760Y1087000D01*
X3082180Y1087850D01*
X3087600Y1092080D01*
X3090980Y1097160D01*
X3091660Y1102240D01*
X3090300Y1108170D01*
X3085560Y1112400D01*
X3080820Y1114090D01*
X3074730D01*
G01X3080820D02*
X3084890Y1116630D01*
X3088270Y1120870D01*
X3089630Y1125950D01*
X3088270Y1131030D01*
X3084890Y1135260D01*
X3078790Y1137800D01*
X3072690Y1136950D01*
X3066600Y1133570D01*
G01X2888000Y1036770D02*
X2837200D01*
Y1053710D01*
X2839740Y1059130D01*
X2843130Y1062510D01*
X2849900Y1063870D01*
X2856670Y1062510D01*
X2860910Y1058450D01*
X2863450Y1053710D01*
Y1036770D01*
G01Y1053710D02*
X2888000Y1063870D01*
G01Y1106200D02*
X2837200D01*
X2847360Y1098070D01*
G01X2888000D02*
Y1114330D01*
G01X2880380Y1147180D02*
X2884610Y1151240D01*
X2887150Y1155980D01*
X2888000Y1162080D01*
X2886310Y1168180D01*
X2882920Y1172920D01*
X2876990Y1176300D01*
X2870220Y1176980D01*
X2863450Y1175630D01*
X2859210Y1172240D01*
X2855830Y1167500D01*
X2854980Y1162760D01*
X2855830Y1158020D01*
X2859210Y1151920D01*
X2837200Y1153950D01*
Y1172240D01*
G01X3421000Y1197770D02*
X3370200D01*
Y1214710D01*
X3372740Y1220130D01*
X3376130Y1223510D01*
X3382900Y1224870D01*
X3389670Y1223510D01*
X3393910Y1219450D01*
X3396450Y1214710D01*
Y1197770D01*
G01Y1214710D02*
X3421000Y1224870D01*
G01Y1267200D02*
X3370200D01*
X3380360Y1259070D01*
G01X3421000D02*
Y1275330D01*
G01Y1321730D02*
X3409990Y1323080D01*
X3400680Y1325110D01*
X3392210Y1327820D01*
X3382900Y1331210D01*
X3370200Y1336630D01*
Y1309530D01*
G01X2981000Y2032770D02*
X2930200D01*
Y2049710D01*
X2932740Y2055130D01*
X2936130Y2058510D01*
X2942900Y2059870D01*
X2949670Y2058510D01*
X2953910Y2054450D01*
X2956450Y2049710D01*
Y2032770D01*
G01Y2049710D02*
X2981000Y2059870D01*
G01X2938670Y2089330D02*
X2933590Y2093390D01*
X2931050Y2098140D01*
X2930200Y2103550D01*
X2931890Y2110330D01*
X2936130Y2115070D01*
X2941210Y2116420D01*
X2946290Y2115750D01*
X2950520Y2113040D01*
X2958990Y2099490D01*
X2964910Y2093390D01*
X2973380Y2089330D01*
X2981000Y2087980D01*
Y2116420D01*
G01Y2166210D02*
X2930200D01*
X2966610Y2141150D01*
Y2175010D01*
G01X2740770Y2511000D02*
Y2561800D01*
X2757710D01*
X2763130Y2559260D01*
X2766510Y2555870D01*
X2767870Y2549100D01*
X2766510Y2542330D01*
X2762450Y2538090D01*
X2757710Y2535550D01*
X2740770D01*
G01X2757710D02*
X2767870Y2511000D01*
G01X2810200D02*
X2814940Y2511850D01*
X2820360Y2514390D01*
X2823750Y2518620D01*
X2825100Y2524550D01*
X2823750Y2530470D01*
X2819680Y2535550D01*
X2813590Y2538090D01*
X2806810D01*
X2802750Y2539790D01*
X2799360Y2544020D01*
X2798010Y2549950D01*
X2800040Y2555870D01*
X2804780Y2560110D01*
X2810200Y2561800D01*
X2815620Y2560110D01*
X2820360Y2555870D01*
X2822390Y2549950D01*
X2821040Y2544020D01*
X2817650Y2539790D01*
X2813590Y2538090D01*
X2806810D01*
X2800720Y2535550D01*
X2796650Y2530470D01*
X2795300Y2524550D01*
X2796650Y2518620D01*
X2800040Y2514390D01*
X2805460Y2511850D01*
X2810200Y2511000D01*
G01X3050770Y2812000D02*
Y2862800D01*
X3067710D01*
X3073130Y2860260D01*
X3076510Y2856870D01*
X3077870Y2850100D01*
X3076510Y2843330D01*
X3072450Y2839090D01*
X3067710Y2836550D01*
X3050770D01*
G01X3067710D02*
X3077870Y2812000D01*
G01X3120200D02*
Y2862800D01*
X3112070Y2852640D01*
G01Y2812000D02*
X3128330D01*
G01X3176080D02*
Y2862800D01*
X3167950Y2852640D01*
G01Y2812000D02*
X3184210D01*
G01X2745320Y3191800D02*
Y3141000D01*
G01X2729740Y3191800D02*
X2760900D01*
G01X2789680Y3146930D02*
X2794430Y3142690D01*
X2799850Y3141000D01*
X2805260Y3142690D01*
X2810010Y3147770D01*
X2813390Y3155390D01*
X2814750Y3163010D01*
Y3172330D01*
X2813390Y3179950D01*
X2810010Y3186720D01*
X2805940Y3190110D01*
X2801200Y3191800D01*
X2795780Y3190110D01*
X2791720Y3186720D01*
X2789010Y3181640D01*
X2787650Y3174870D01*
X2789010Y3168940D01*
X2792390Y3163010D01*
X2796460Y3159630D01*
X2801200Y3158780D01*
X2806620Y3160470D01*
X2810680Y3164710D01*
X2814750Y3172330D01*
G01X3442000Y3269420D02*
X3391200D01*
Y3282970D01*
X3393740Y3288380D01*
X3397130Y3292450D01*
X3402210Y3295840D01*
X3408130Y3298540D01*
X3416600Y3299220D01*
X3425070Y3298540D01*
X3430990Y3295840D01*
X3436070Y3292450D01*
X3439460Y3288380D01*
X3442000Y3282970D01*
Y3269420D01*
G01X3431840Y3325300D02*
X3437770Y3329360D01*
X3441150Y3334780D01*
X3442000Y3340880D01*
X3441150Y3346300D01*
X3436920Y3351720D01*
X3431840Y3355100D01*
X3426760Y3355780D01*
X3420830Y3354420D01*
X3416600Y3349680D01*
X3414910Y3344940D01*
Y3338850D01*
G01Y3344940D02*
X3412370Y3349010D01*
X3408130Y3352390D01*
X3403050Y3353750D01*
X3397970Y3352390D01*
X3393740Y3349010D01*
X3391200Y3342910D01*
X3392050Y3336810D01*
X3395430Y3330720D01*
G01X3280430Y3814220D02*
X3277890Y3810160D01*
X3276200Y3805420D01*
Y3800000D01*
X3278740Y3793900D01*
X3282970Y3789160D01*
X3288050Y3785770D01*
X3296520Y3783060D01*
X3304140Y3782390D01*
X3311760Y3783740D01*
X3316840Y3785770D01*
X3321920Y3789840D01*
X3325310Y3794580D01*
X3327000Y3799320D01*
Y3804060D01*
X3325310Y3808800D01*
X3322770Y3812870D01*
X3319380Y3816250D01*
G01X3327000Y3863330D02*
X3276200D01*
X3312610Y3838270D01*
Y3872130D01*
G01X3587000Y241420D02*
X3536200D01*
Y254970D01*
X3538740Y260380D01*
X3542130Y264450D01*
X3547210Y267840D01*
X3553130Y270540D01*
X3561600Y271220D01*
X3570070Y270540D01*
X3575990Y267840D01*
X3581070Y264450D01*
X3584460Y260380D01*
X3587000Y254970D01*
Y241420D01*
G01X3579380Y297300D02*
X3583610Y301360D01*
X3586150Y306100D01*
X3587000Y312200D01*
X3585310Y318300D01*
X3581920Y323040D01*
X3575990Y326420D01*
X3569220Y327100D01*
X3562450Y325750D01*
X3558210Y322360D01*
X3554830Y317620D01*
X3553980Y312880D01*
X3554830Y308140D01*
X3558210Y302040D01*
X3536200Y304070D01*
Y322360D01*
G01X3656000Y1353770D02*
X3605200D01*
Y1370710D01*
X3607740Y1376130D01*
X3611130Y1379510D01*
X3617900Y1380870D01*
X3624670Y1379510D01*
X3628910Y1375450D01*
X3631450Y1370710D01*
Y1353770D01*
G01Y1370710D02*
X3656000Y1380870D01*
G01Y1423200D02*
X3605200D01*
X3615360Y1415070D01*
G01X3656000D02*
Y1431330D01*
G01Y1479080D02*
X3655150Y1483820D01*
X3652610Y1489240D01*
X3648380Y1492630D01*
X3642450Y1493980D01*
X3636530Y1492630D01*
X3631450Y1488560D01*
X3628910Y1482470D01*
Y1475690D01*
X3627210Y1471630D01*
X3622980Y1468240D01*
X3617050Y1466890D01*
X3611130Y1468920D01*
X3606890Y1473660D01*
X3605200Y1479080D01*
X3606890Y1484500D01*
X3611130Y1489240D01*
X3617050Y1491270D01*
X3622980Y1489920D01*
X3627210Y1486530D01*
X3628910Y1482470D01*
Y1475690D01*
X3631450Y1469600D01*
X3636530Y1465530D01*
X3642450Y1464180D01*
X3648380Y1465530D01*
X3652610Y1468920D01*
X3655150Y1474340D01*
X3656000Y1479080D01*
G01X3568000Y1935770D02*
X3517200D01*
Y1952710D01*
X3519740Y1958130D01*
X3523130Y1961510D01*
X3529900Y1962870D01*
X3536670Y1961510D01*
X3540910Y1957450D01*
X3543450Y1952710D01*
Y1935770D01*
G01Y1952710D02*
X3568000Y1962870D01*
G01X3517200Y1991650D02*
X3568000D01*
Y2018750D01*
G01Y2061080D02*
X3517200D01*
X3527360Y2052950D01*
G01X3568000D02*
Y2069210D01*
G01X3662000Y1716770D02*
X3611200D01*
Y1733710D01*
X3613740Y1739130D01*
X3617130Y1742510D01*
X3623900Y1743870D01*
X3630670Y1742510D01*
X3634910Y1738450D01*
X3637450Y1733710D01*
Y1716770D01*
G01Y1733710D02*
X3662000Y1743870D01*
G01X3611200Y1772650D02*
X3662000D01*
Y1799750D01*
G01X3619670Y1829210D02*
X3614590Y1833270D01*
X3612050Y1838020D01*
X3611200Y1843430D01*
X3612890Y1850210D01*
X3617130Y1854950D01*
X3622210Y1856300D01*
X3627290Y1855630D01*
X3631520Y1852920D01*
X3639990Y1839370D01*
X3645910Y1833270D01*
X3654380Y1829210D01*
X3662000Y1827860D01*
Y1856300D01*
G01X3568000Y2226770D02*
X3517200D01*
Y2243710D01*
X3519740Y2249130D01*
X3523130Y2252510D01*
X3529900Y2253870D01*
X3536670Y2252510D01*
X3540910Y2248450D01*
X3543450Y2243710D01*
Y2226770D01*
G01Y2243710D02*
X3568000Y2253870D01*
G01Y2296200D02*
X3517200D01*
X3527360Y2288070D01*
G01X3568000D02*
Y2304330D01*
G01X3562070Y2340560D02*
X3566310Y2345310D01*
X3568000Y2350730D01*
X3566310Y2356140D01*
X3561230Y2360890D01*
X3553610Y2364270D01*
X3545990Y2365630D01*
X3536670D01*
X3529050Y2364270D01*
X3522280Y2360890D01*
X3518890Y2356820D01*
X3517200Y2352080D01*
X3518890Y2346660D01*
X3522280Y2342600D01*
X3527360Y2339890D01*
X3534130Y2338530D01*
X3540060Y2339890D01*
X3545990Y2343270D01*
X3549370Y2347340D01*
X3550220Y2352080D01*
X3548530Y2357500D01*
X3544290Y2361560D01*
X3536670Y2365630D01*
G01X3579770Y3208160D02*
X3583160Y3203080D01*
X3587220Y3199690D01*
X3591970Y3198000D01*
X3597380Y3199690D01*
X3601450Y3203080D01*
X3605510Y3208160D01*
X3606870Y3214930D01*
Y3248800D01*
G01X3632270D02*
X3649200Y3198000D01*
X3666130Y3248800D01*
G01X3705080Y3198000D02*
X3699660Y3198850D01*
X3694920Y3202230D01*
X3690860Y3207310D01*
X3688150Y3213240D01*
X3686790Y3220010D01*
Y3226790D01*
X3688150Y3233560D01*
X3690860Y3239490D01*
X3694920Y3244570D01*
X3699660Y3247950D01*
X3705080Y3248800D01*
X3710500Y3247950D01*
X3715240Y3244570D01*
X3719300Y3239490D01*
X3722010Y3233560D01*
X3723370Y3226790D01*
Y3220010D01*
X3722010Y3213240D01*
X3719300Y3207310D01*
X3715240Y3202230D01*
X3710500Y3198850D01*
X3705080Y3198000D01*
G01X3746060Y3248800D02*
Y3212390D01*
X3748770Y3204770D01*
X3754190Y3199690D01*
X3760960Y3198000D01*
X3767730Y3199690D01*
X3773150Y3204770D01*
X3775860Y3212390D01*
Y3248800D01*
G01X3816840D02*
Y3198000D01*
G01X3801260Y3248800D02*
X3832420D01*
G54D13*
G01X630880Y2516980D02*
X326080D01*
Y2659220D01*
X630880D01*
Y2516980D01*
G01X1285200Y769000D02*
Y1277000D01*
X878800D01*
Y769000D01*
X1285200D01*
G01X1063980Y1314120D02*
Y1618920D01*
X1206220D01*
Y1314120D01*
X1063980D01*
G01X1006120Y2398020D02*
X1310920D01*
Y2255780D01*
X1006120D01*
Y2398020D01*
G01X1371000Y1820800D02*
X1879000D01*
Y2227200D01*
X1371000D01*
Y1820800D01*
G01X1702120Y2489020D02*
X2006920D01*
Y2346780D01*
X1702120D01*
Y2489020D01*
G01X1704000Y3486800D02*
X2212000D01*
Y3893200D01*
X1704000D01*
Y3486800D01*
G01X1946980Y1217120D02*
Y1521920D01*
X2089220D01*
Y1217120D01*
X1946980D01*
G01X2547980Y1731120D02*
Y2035920D01*
X2690220D01*
Y1731120D01*
X2547980D01*
G01X2376880Y2364980D02*
X2072080D01*
Y2507220D01*
X2376880D01*
Y2364980D01*
G01X1971980Y2950120D02*
Y3254920D01*
X2114220D01*
Y2950120D01*
X1971980D01*
G01X2764120Y3114020D02*
X3068920D01*
Y2971780D01*
X2764120D01*
Y3114020D01*
M02*
